<svg aria-hidden="true" style="width:0;height:0;position:absolute;overflow:hidden" xmlns="http://www.w3.org/2000/svg"><defs><symbol id="icon-logo" viewBox="0 0 127 32"><path fill="#fff" style="fill:var(--color1,#fff)" d="M31.36 16.32C31.36 24.98 24.483 32 16 32S.64 24.98.64 16.32 7.517.64 16 .64s15.36 7.02 15.36 15.68z"/><path fill="#d41443" style="fill:var(--color2,#d41443)" d="M11.849.561C4.444 2.804 0 8.635 0 16.003c0 6.022 3.091 11.277 8.179 13.904 2.64 1.345 3.027.384.579-1.474-1.738-1.409-2.061-2.05-2.061-4.421 0-1.666-.386-3.011-.966-3.524-1.158-.961-1.288-3.46-.128-4.357.45-.384.901-1.666.965-2.819.323-4.228 4.895-8.201 9.467-8.201s9.144 3.972 9.466 8.201c.064 1.153.515 2.435.966 2.819 1.158.897 1.03 3.396-.129 4.357-.579.513-.966 1.858-.966 3.524 0 2.371-.321 3.012-2.06 4.421-2.705 2.115-1.932 2.883 1.094 1.025 4.251-2.627 7.406-8.33 7.406-13.391 0-10.124-10.561-18.325-19.964-15.506z"/><path fill="#d41443" style="fill:var(--color2,#d41443)" d="M12.687 7.994c-1.16.513-2.125 1.154-2.125 1.538 0 .705 3.478 1.987 5.474 1.987s5.474-1.281 5.474-1.987c0-.768-3.993-2.499-5.603-2.499-.644.064-2.125.448-3.22.961zm33.164 3.332c-.966.256-1.158 1.089-1.158 5.702v5.382h4.572l-.193-5.574c-.193-5.83-.451-6.28-3.22-5.51zm7.535.32c-2.125 1.154-2.898 2.563-2.898 5.318 0 3.78 2.061 5.574 5.86 5.318 2.576-.192 2.833-.385 3.027-1.987s.064-1.73-1.932-1.602c-2.061.192-2.125.064-2.125-2.051s.129-2.243 1.997-2.05c1.545.128 2.125-.128 2.382-1.089.129-.641 0-1.538-.387-1.923-.901-.897-4.25-.897-5.924.064zm7.664.064c-.194.513-.258 3.012-.129 5.638l.193 4.742H65.3c3.864 0 4.186-.128 4.379-1.474.193-1.217-.064-1.409-2.06-1.409-1.288 0-2.319-.32-2.319-.641 0-.385.902-.641 1.932-.641 1.481 0 1.932-.256 1.932-1.281s-.451-1.281-1.932-1.281c-1.03 0-1.932-.32-1.932-.641 0-.385.837-.641 1.868-.641 1.804 0 3.027-1.409 2.254-2.627-.58-.961-7.985-.705-8.371.256zm12.943-.192c-2.125.833-2.962 2.307-3.027 4.998-.065 4.613 1.803 6.215 6.633 5.766 1.868-.128 2.189-.448 2.189-1.794 0-1.409-.257-1.602-2.061-1.409-1.546.128-2.125-.064-2.447-1.089-.58-1.987.644-3.588 2.705-3.588 1.224 0 1.868-.384 1.996-1.217.451-2.051-2.833-3.011-5.989-1.666zm7.921-.256c-.323.256-.515 2.883-.515 5.83v5.382l2.06-.192c1.61-.128 2.19-.577 2.512-1.795l.386-1.602.515 1.73c.387 1.474.837 1.795 2.512 1.795 2.769 0 3.091-.449 1.932-2.691-.708-1.41-.837-2.115-.322-2.627.837-.833.902-3.652.129-4.87-.644-1.025-8.371-1.858-9.208-.961zm5.28 3.46c0 .705-.257 1.281-.644 1.281-.322 0-.644-.576-.644-1.281s.322-1.282.644-1.282c.387 0 .644.577.644 1.282zm6.247-3.396c-.258.192-.451 2.819-.451 5.766v5.318h4.186c4.057 0 4.186-.064 4.186-1.602 0-1.346-.322-1.602-1.932-1.602-1.03 0-1.932-.32-1.932-.641 0-.385.708-.641 1.61-.641 1.159 0 1.61-.321 1.61-1.282s-.451-1.281-1.61-1.281c-.902 0-1.61-.32-1.61-.641 0-.384.902-.641 1.932-.641 1.61 0 1.932-.256 1.932-1.602 0-1.538-.193-1.602-3.735-1.602-2.061 0-3.992.192-4.186.448zm13.009-.064c-1.16.32-4.122 8.842-3.542 10.252.515 1.281 3.413 1.153 4.186-.192.579-1.089.644-1.089 1.803 0 1.482 1.281 4.701 1.474 4.701.256 0-.384-.644-2.947-1.482-5.574-1.288-4.228-1.674-4.805-3.027-4.933-.902 0-2.061.064-2.64.192zm1.803 5.83c-.193.641-.322.256-.322-.769 0-1.089.129-1.538.322-1.153.129.448.129 1.345 0 1.922zm7.47-5.766c-.58.192-.837 1.986-.837 5.702v5.382h1.868c1.61 0 1.932-.321 2.189-1.795.257-1.666.257-1.666.772-.32.258.833.902 1.474 1.352 1.474.515 0 1.224-.641 1.546-1.474.515-1.346.58-1.346.58.384.065 1.602.257 1.795 2.061 1.602l1.996-.192.065-5.318c.129-4.933.064-5.318-1.288-5.638-2.061-.512-3.799.705-4.379 3.076l-.451 2.115-.708-2.243c-.902-3.012-2.254-3.78-4.765-2.755zm-106.707.641c-.193.256-.387 1.089-.387 1.922 0 1.474.064 1.474 7.406 1.474 7.341 0 7.405 0 7.405-1.474 0-2.179-.579-2.435-2.64-1.409-2.319 1.217-7.213 1.217-9.531 0-1.03-.513-1.997-.705-2.254-.513zm-1.868 5.702c-1.03 1.089.708 1.538 5.731 1.538h5.409v2.243c0 1.217.322 2.243.644 2.243.386 0 .644-.961.644-2.179 0-2.115.129-2.243 2.576-2.435 1.416-.128 2.576-.512 2.576-.832 0-.705-16.872-1.282-17.581-.577z"/><path fill="#d41443" style="fill:var(--color2,#d41443)" d="M8.629 23.308c0 3.524 1.224 4.229 7.406 4.229s7.405-.705 7.405-4.229c0-1.538-.322-2.179-.966-2.179-.579 0-.965.577-.965 1.538 0 3.588-4.895 3.908-5.603.384-.322-1.858-.515-1.922-3.799-1.922H8.629v2.179zm3.993 7.24c.387 2.051 6.955 1.859 6.955-.128 0-.705-.837-.961-3.606-.961-3.027 0-3.542.192-3.348 1.089z"/></symbol><symbol id="icon-arrow" viewBox="0 0 32 32"><path d="M16 0C7.163 0 0 7.163 0 16s7.163 16 16 16 16-7.163 16-16S24.837 0 16 0zm0 29C8.82 29 3 23.18 3 16S8.82 3 16 3s13 5.82 13 13-5.82 13-13 13z"/><path d="m11.086 22.086 2.829 2.829 8.914-8.914-8.914-8.914-2.828 2.828 6.086 6.086z"/></symbol><symbol id="icon-open-menu" viewBox="0 0 46 32"><path fill="none" stroke-width="2.286" d="M0 2.286h45.714M0 16h45.714M0 29.714h45.714"/></symbol><symbol id="icon-close-menu" viewBox="0 0 32 32"><path stroke-width="2" d="m2.52 2 26.96 28M2 29.48 30 2.52"/></symbol><symbol id="icon-github" viewBox="0 0 32 32"><path d="M32 16c0 8.837-7.163 16-16 16S0 24.837 0 16 7.163 0 16 0s16 7.163 16 16z"/><path fill="#fff" style="fill:var(--color2,#fff)" d="M16 6.588c-5.17 0-9.412 4.242-9.412 9.412 0 4.411 3.096 8.419 7.206 9.412v-3.113a2.314 2.314 0 0 1-1.196-.031c-.556-.164-1.008-.535-1.344-1.099-.214-.36-.593-.753-.988-.724l-.097-1.098c.856-.073 1.594.521 2.033 1.258.196.328.421.52.709.605.278.083.577.043.925-.08.088-.697.408-.958.649-1.327-2.452-.365-3.429-1.666-3.816-2.692-.514-1.364-.238-3.066.67-4.143.018-.021.05-.075.038-.113-.417-1.259.09-2.3.109-2.41.481.141.559-.143 2.089.786l.264.159c.111.066.075.028.186.019a7.787 7.787 0 0 1 1.97-.276h.006a8.021 8.021 0 0 1 2.002.284l.086.009c-.008-.002.024-.006.075-.037 1.911-1.158 1.842-.779 2.355-.946.019.111.519 1.169.106 2.411-.056.171 1.656 1.739.708 4.256-.388 1.026-1.365 2.328-3.816 2.693.314.48.692.734.69 1.722v3.886c4.109-.993 7.206-5 7.206-9.412 0-5.17-4.242-9.412-9.412-9.412z"/></symbol><symbol id="icon-telegram" viewBox="0 0 32 32"><path d="M32 16c0 8.837-7.163 16-16 16S0 24.837 0 16 7.163 0 16 0s16 7.163 16 16z"/><path fill="#fff" style="fill:var(--color2,#fff)" d="m12.867 18.376-.317 4.169c.455 0 .651-.183.888-.401l2.13-1.901 4.414 3.018c.81.421 1.381.199 1.6-.696l2.897-12.673c.258-1.117-.433-1.554-1.221-1.28L6.226 14.698c-1.162.422-1.145 1.026-.198 1.301l4.355 1.264 10.114-5.907c.476-.295.909-.132.553.163l-8.182 6.856z"/></symbol><symbol id="icon-facebook" viewBox="0 0 32 32"><path d="M16 32c8.837 0 16-7.163 16-16S24.837 0 16 0 0 7.163 0 16s7.163 16 16 16z"/><path fill="#fff" style="fill:var(--color2,#fff)" d="M20.446 15.981h-2.611V25.6H13.88v-9.619H12v-3.379h1.88v-2.187c0-1.564.739-4.014 3.991-4.014l2.929.012v3.281h-2.125c-.348 0-.839.176-.839.922v1.989h2.955l-.345 3.377z"/></symbol><symbol id="icon-circle" viewBox="0 0 32 32"><path fill="#d9d9d9" style="fill:var(--color3,#d9d9d9)" d="M32 16c0 8.837-7.163 16-16 16S0 24.837 0 16 7.163 0 16 0s16 7.163 16 16z"/></symbol><symbol id="icon-hause" viewBox="0 0 32 32"><path fill="#d31342" style="fill:var(--color4,#d31342)" d="M31.6 16.765a1.357 1.357 0 0 0-.122-2.032l-.003-.002L17.174 3.056a1.869 1.869 0 0 0-1.146-.389c-.448 0-.86.157-1.183.419l.004-.003L.5 15.35a1.348 1.348 0 0 0-.07 2.037l.001.001.36.347c.595.581 1.56.651 2.152.155l1.072-.896v13.117c0 .803.701 1.456 1.563 1.456h5.592c.864 0 1.563-.653 1.563-1.456v-9.176h7.133v9.208a1.42 1.42 0 0 0 1.421 1.421l.048-.001h-.002 5.928c.861 0 1.56-.651 1.56-1.456V17.179s.299.24.664.541c.363.299 1.131.059 1.709-.536l.408-.419z"/></symbol><symbol id="icon-heart" viewBox="0 0 28 32"><path fill="#ffa5ba" stroke="#ffa5ba" stroke-width=".308" style="fill:var(--color1,#ffa5ba);stroke:var(--color1,#ffa5ba)" d="M.666 11.161c.588 2.695 1.895 5.088 3.953 7.162 1.839 1.86 3.455 2.991 6.008 4.164l1.238.582v8.47h1.73v-7.902l.159.047h.001c.23.066.567.066.796 0h.001l.159-.047v7.902h1.73v-8.481l1.179-.536c2.469-1.138 4.263-2.372 6.008-4.142 2.786-2.829 4.217-6.052 4.217-9.561.012-3.85-2.01-7-5.214-8.076-.689-.239-1.054-.274-2.316-.262M.666 11.161 14.28 2.856l-.097-.073M.666 11.161C.532 10.546.464 9.706.461 8.885s.06-1.636.194-2.201l.011 4.477zM20.317.482zm0 0c-.658.006-1.07.02-1.444.074-.376.054-.709.146-1.208.303h-.002c-1.188.386-2.356.994-3.132 1.632l-.001.001-.346.291m-.001 0-.543-.401C11.967 1.151 10.255.552 8.244.471h-.001A15.34 15.34 0 0 0 7.183.47l.025-.001c-.313.01-.586.031-.733.063m7.708 2.251L6.475.532m0 0h-.001l.034.15-.033-.15zm2.537 8.064.001.001c.522.381 1.185.865 1.481 1.084.805.597 2.132 1.341 3.138 1.761m-4.62-2.846 4.62 2.847m-4.62-2.846C7.78 7.683 6.435 7.012 5.25 6.718a13.097 13.097 0 0 0-1.743-.29l-.06-.005a6.762 6.762 0 0 0-.712-.039h-.002a1.35 1.35 0 0 0-.231.02l.008-.001c-.049.095-.1.264-.148.496a8.718 8.718 0 0 0-.127.892c-.063.665-.078 1.407-.02 1.948.316 2.926 1.588 5.398 4.031 7.743h.001c1.927 1.865 4.326 3.319 7.044 4.236l.002.001.862.305.875-.305c2.542-.871 5.036-2.326 6.844-4.018 1.246-1.168 1.889-1.964 2.711-3.37v-.001c.255-.428.604-1.204.874-1.892.135-.343.249-.662.32-.9.026-.086.046-.158.058-.217l-.145.041c-.201.06-.473.151-.767.26h-.001c-1.188.433-2.967.816-4.401.944h-.001l-.063.005c-.323.026-.548.045-.716.089-.166.043-.252.106-.311.215-.067.126-.107.329-.127.677-.018.322-.018.746-.018 1.313v.121c0 1.098-.014 1.746-.096 2.184a1.762 1.762 0 0 1-.194.563l.005-.009a1.969 1.969 0 0 1-.327.417c-.235.246-.47.425-.734.54s-.546.164-.871.164c-.5 0-.927-.099-1.284-.317s-.63-.546-.835-.983c-.105-.223-.164-.436-.198-.864-.033-.423-.042-1.067-.042-2.156 0-.906-.009-1.537-.031-1.957a4.5 4.5 0 0 0-.046-.495l.003.025a.828.828 0 0 0-.027-.123l.002.006a.149.149 0 0 0-.011-.028v.001M9.012 8.597l5.59 3.354m-.97-.509c.239.103.472.213.654.31.091.049.167.093.225.13.034.023.064.045.092.069l-.001-.001m-.97-.508.97.508m-1.443-7.716-.001-.001c-.238-.226-.669-.537-1.14-.833a9.827 9.827 0 0 0-1.336-.718 9.337 9.337 0 0 0-1.436-.408l-.064-.011c-1.975-.362-3.489.022-4.825 1.21l-.001.001a6.742 6.742 0 0 0-.796.843 2.988 2.988 0 0 0-.224.317l-.007.013c-.202-.019.189.051.581.117l.571.08c1.231.192 2.186.449 3.209.943 1.02.491 2.103 1.214 3.593 2.329l.001.001c.605.465 1.626 1.059 2.651 1.541l.002.001c.458.226.898.452 1.238.636.17.092.316.175.428.242.055.034.103.065.142.091a.576.576 0 0 1 .098.08c.128.137.234.274.318.447s.142.372.182.631c.081.512.098 1.281.098 2.57 0 1.17.003 1.785.033 2.135.015.175.036.271.061.332a.354.354 0 0 0 .096.134c.246.24.583.23.762.031l.004-.004c.049-.052.097-.135.125-.456.027-.32.033-.837.033-1.723 0-1.172.029-1.886.16-2.378.066-.25.16-.448.292-.622.13-.172.293-.314.487-.459l.002-.001a1.77 1.77 0 0 1 .647-.308c.271-.071.642-.124 1.24-.193 1.865-.207 2.942-.447 4.231-.937.404-.154.703-.269.927-.372.225-.103.357-.188.439-.273a.501.501 0 0 0 .134-.302c.02-.142.014-.324.002-.588v-.003a8.89 8.89 0 0 0-.255-1.706v-.001c-.709-2.682-2.922-4.56-5.317-4.56-1.787 0-3.967.839-5.314 2.06l-.001.001c-.22.197-.405.352-.572.459s-.327.175-.495.182a.843.843 0 0 1-.486-.149 3.572 3.572 0 0 1-.517-.425zM2.489 6.406h.001zm.037-.037v-.001z"/></symbol><symbol id="icon-fruits" viewBox="0 0 32 32"><path fill="#ffa5ba" style="fill:var(--color1,#ffa5ba)" d="M29.626 21.411c-1.292-.458-2.381-.344-3.242.018.145-.877.47-1.832 1.169-2.481a1.065 1.065 0 1 0-1.448-1.561c-1.229 1.14-1.706 2.749-1.874 4.081a3.929 3.929 0 0 0-1.035-.308l-.023-.003 1.89-9.83a1.064 1.064 0 0 0-1.045-1.266h-.205c.094-.5.141-.997.138-1.47-.016-1.994-.903-3.495-2.374-4.017-1.409-.5-2.589-.35-3.507.066.146-.976.495-2.063 1.282-2.794A1.065 1.065 0 1 0 17.904.285c-1.32 1.226-1.815 2.966-1.981 4.387-.735-.348-1.644-.526-2.709-.33-1.094-1.571-2.612-2.295-4.09-1.941-1.451.348-2.358 1.115-2.9 1.962-.41-.899-.712-2.001-.452-3.036A1.065 1.065 0 0 0 3.708.799l-.002.007c-.439 1.746.095 3.475.73 4.758-1.016.138-2.118.65-3.049 1.866-.578.755-.773 1.698-.596 2.7a1.066 1.066 0 0 0-.672 1.204l-.001-.007 3.809 19.809c.096.502.535.864 1.046.864H20.21c.51 0 .949-.362 1.046-.864l.037-.195c.287.198.595.364.927.486 1.267.472 2.447.278 3.044.118.316.084.795.179 1.364.179.506 0 1.084-.075 1.68-.297 2.36-.879 3.615-3.839 3.596-6.178-.015-1.904-.865-3.34-2.275-3.839zm-6.951-9.22c-.491 4.705-4.452 7.909-9.971 7.909s-9.481-3.204-9.971-7.909h19.942zm-6.643-4.676a1.048 1.048 0 0 0 1.862 0 2.66 2.66 0 0 1 .76-.771l.01-.006c.629-.408 1.35-.46 2.203-.157.851.301.952 1.518.956 2.027a5.74 5.74 0 0 1-.19 1.453h-7.126c.236-1.19.094-2.492-.289-3.669.392.022.751.149 1.055.351l-.008-.005c.31.205.567.465.763.767l.006.01zM3.077 8.724c.55-.719 1.183-1.069 1.933-1.069h.002c.57 0 1.016.207 1.066.232.341.189.749.172 1.078-.037.332-.211.51-.592.481-.983-.006-.077-.115-1.894 1.983-2.397.877-.211 1.626.754 1.906 1.178.808 1.221 1.222 3.108.777 4.413H2.955c-.141-.443-.179-.943.122-1.336zM5.852 29.87 3.741 18.893c.138.132.28.262.428.388 2.208 1.901 5.239 2.948 8.535 2.948s6.328-1.047 8.535-2.948l.152-.134-.431 2.243-.061.02c-1.411.5-2.261 1.935-2.276 3.839-.01 1.165.297 2.483.898 3.622l-.192.998H5.852zm21.71-.438c-.943.351-1.881.017-1.916.004a1.034 1.034 0 0 0-.775.003l.007-.003c-.01.004-.96.352-1.917-.004-1.338-.499-2.223-2.556-2.21-4.166.004-.465.095-1.578.858-1.849.279-.107.601-.17.937-.175h.002c1.107 0 1.658.812 1.782 1.024a1.046 1.046 0 0 0 1.862 0c.156-.265.977-1.468 2.721-.849.763.271.854 1.383.858 1.85.013 1.609-.872 3.667-2.21 4.165z"/></symbol><symbol id="icon-milk" viewBox="0 0 32 32"><path fill="#ffa5ba" style="fill:var(--color1,#ffa5ba)" d="M8.093.144c-.349.188-.552.563-.552 1.006.006.813.209 1.556.614 2.2l.177.294-.337.381c-.381.425-.473.581-.644 1.088-.141.412-.154 1.162-.031 1.581.429 1.437 1.854 2.269 3.247 1.9.473-.125.762-.282 1.203-.657l.375-.312.35.175c.196.1.528.243.742.324l.381.138v.7c0 1.106.227 1.763.81 2.356s1.498.9 2.291.762c.564-.1 1.117-.381 1.491-.762.584-.594.811-1.251.811-2.356v-.7l.387-.138a9.56 9.56 0 0 0 .737-.325l.349-.175.374.312c.442.375.731.531 1.203.657 1.394.369 2.819-.463 3.248-1.9.123-.419.111-1.169-.031-1.581-.172-.507-.264-.663-.644-1.088l-.337-.381.178-.294c.405-.643.608-1.388.614-2.2 0-.444-.204-.819-.553-1.006l-.264-.144H8.356l-.264.144zm14.736 1.955c0 .019-.179.313-.399.662-.651 1.032-.626 1.256.239 2.17.314.331.602.662.645.737.233.463-.234 1.038-.749.919-.124-.026-.394-.243-.787-.631-.786-.775-1.056-.863-1.658-.518-.694.399-1.578.806-2.008.924-.608.175-.817.307-.976.637-.129.256-.141.363-.141 1.363 0 1.231-.05 1.431-.399 1.6-.252.125-.301.125-.553 0-.35-.169-.399-.369-.399-1.6 0-1-.013-1.107-.135-1.363-.166-.324-.374-.462-.982-.637-.528-.15-1.308-.493-1.738-.774-.405-.262-.762-.363-1.043-.313-.185.038-.369.181-.86.662-.405.394-.694.625-.817.65-.509.119-.976-.463-.742-.919.043-.075.332-.406.644-.737.865-.913.89-1.137.239-2.169-.221-.349-.399-.643-.399-.662 0-.025 2.929-.037 6.508-.037s6.508.013 6.508.037zM6.245 13.206c-.314.212-.485.512-.485.844 0 .225 3.119 16.925 3.229 17.275.055.194.282.425.522.55.227.125.387.125 6.809.125s6.582 0 6.809-.125c.239-.125.467-.356.522-.55.111-.35 3.229-17.05 3.229-17.275 0-.331-.172-.631-.485-.844l-.209-.144H6.454l-.209.144zm18.21 2.275c-.061.5-.418 1.587-.682 2.081-1.283 2.375-3.715 3.819-6.729 3.987-2.278.132-4.205-.331-5.82-1.393a7.057 7.057 0 0 1-2.247-2.402l-.018-.035c-.307-.544-.712-1.713-.774-2.238l-.043-.356h16.356l-.043.356zM10.15 21.919c2.634 1.775 6.569 2.244 9.885 1.169a10.708 10.708 0 0 0 3.18-1.687c.276-.219.294-.219.264-.082-.018.081-.38 1.994-.804 4.244s-.78 4.156-.798 4.232l-.031.143H10.794l-.031-.143c-.019-.075-.374-1.981-.798-4.232s-.786-4.163-.804-4.243c-.031-.138-.013-.138.264.081.16.125.492.356.724.518z"/></symbol><symbol id="icon-big-button" viewBox="0 0 32 32"><path d="M8.75.138c-.275.106-.481.275-1.069.856-.9.894-1.019 1.106-1.025 1.788 0 .362.031.569.119.75.081.169 2.081 2.219 6.219 6.363l6.1 6.106-6.106 6.113c-4.75 4.75-6.138 6.169-6.231 6.387a1.621 1.621 0 0 0-.131.688c0 .644.181.956 1.05 1.819.613.606.794.744 1.094.856.456.175.819.175 1.275.006.35-.125.675-.444 7.688-7.456 8.106-8.1 7.644-7.587 7.644-8.413s.462-.313-7.644-8.412C10.714.57 10.395.258 10.045.133a1.743 1.743 0 0 0-1.294.006z"/></symbol><symbol id="icon-close" viewBox="0 0 32 32"><path d="m26.667 7.303-1.97-1.97-7.808 7.808-7.808-7.808-1.97 1.97 7.808 7.808-7.808 7.808 1.97 1.97 7.808-7.808 7.808 7.808 1.97-1.97-7.808-7.808 7.808-7.808z"/></symbol><symbol id="icon-maps" viewBox="0 0 32 32"><path d="M15.188.037c-1.431.163-2.25.338-3.175.681-2.45.919-4.5 2.6-5.894 4.844C4.806 7.681 4.2 10.425 4.5 12.875c.487 3.944 3.3 9.381 7.963 15.406 1.1 1.425 2.519 3.131 2.844 3.425.431.387.956.387 1.388 0 .325-.294 1.744-2 2.844-3.425 4.194-5.419 6.887-10.344 7.738-14.169.219-.981.288-1.619.288-2.644-.006-3-1.206-5.869-3.375-8.031C22.402 1.643 20.296.562 17.815.156c-.587-.094-2.2-.169-2.625-.119zm1.543 5.782a5.902 5.902 0 0 1 4.894 4.244c.169.594.231 1.787.131 2.438-.294 1.85-1.506 3.475-3.225 4.313-1.012.494-2.05.681-3.106.563-.825-.094-1.244-.212-1.956-.563-1.719-.838-2.931-2.463-3.225-4.313-.1-.65-.037-1.844.131-2.438.781-2.787 3.537-4.631 6.356-4.244z"/></symbol><symbol id="icon-investment" viewBox="0 0 32 32"><path d="M7.938 3.569c-1.862.225-3.281.725-3.956 1.387-.194.188-.375.431-.425.575-.075.206-.087 1.306-.087 6.625v6.375l.144.294c.175.35.569.712 1.038.962l.338.175.044.5a8.313 8.313 0 0 0 5.581 7.188c1 .344 1.581.438 2.762.438 1.394.006 2.412-.219 3.6-.781 1.269-.6 2.613-1.75 3.331-2.85l.337-.519 1.069.038c3.262.119 6.006-.675 6.681-1.944l.137-.25V8.907l-.137-.25c-.363-.681-1.275-1.213-2.663-1.563-3.712-.925-8.544-.138-9.462 1.537-.1.188-.113.4-.131 1.825-.019 1.419-.031 1.613-.113 1.581-.056-.019-.113-.037-.125-.037s-.025-1.4-.025-3.113V5.781l-.15-.313c-.387-.838-1.606-1.45-3.569-1.788-.85-.15-3.381-.219-4.219-.112zM12 4.719c.831.15 1.556.369 2.056.625.412.206.756.519.756.688 0 .156-.406.494-.85.694-1.919.888-5.65 1-7.956.237-1.306-.431-1.744-.888-1.25-1.306.525-.438 1.619-.8 3.025-1 .875-.125 3.4-.088 4.219.063zM4.925 7.681c1.075.544 2.781.838 4.825.831 1.869-.006 3.338-.256 4.581-.787l.481-.213v4.231l-.2-.044c-.113-.025-.7-.044-1.3-.044-.819.006-1.225.031-1.625.119-2.488.537-4.619 2.144-5.756 4.331-.244.475-.269.5-.338.375-.037-.075-.2-.212-.362-.3s-.375-.238-.481-.338c-.181-.169-.188-.206-.188-.7 0-.287.013-.519.031-.519s.138.05.269.119c.125.063.463.194.75.287.45.15.537.162.706.094.225-.094.306-.231.306-.519 0-.281-.112-.369-.744-.6-.6-.219-.975-.425-1.194-.662-.125-.131-.156-.244-.175-.594-.037-.644-.025-.656.412-.438.675.331 2.369.75 3.056.75.3 0 .519-.213.519-.506 0-.412-.131-.494-1-.619-1.281-.181-2.444-.613-2.844-1.063-.1-.106-.131-.25-.15-.662-.006-.287-.006-.525.013-.525.013 0 .244.1.513.225 1.1.506 2.737.781 4.694.775 1.637 0 2.856-.162 3.075-.406a.489.489 0 0 0-.025-.7c-.175-.175-.3-.175-1.463-.019-.606.081-2.694.081-3.344 0-1.188-.15-2.088-.387-2.725-.725-.6-.319-.7-.444-.731-.931-.013-.225-.006-.406.013-.406.025 0 .2.081.4.181zm19.481.225c1.269.194 2.337.563 2.8.963.269.244.3.444.087.656-1.087 1.088-5.306 1.512-8.106.819-1.063-.269-2-.794-2-1.119 0-.262.619-.662 1.45-.95.563-.188 1.594-.388 2.4-.463.819-.075 2.587-.025 3.369.094zm-6.612 3.088c1.012.438 2.356.681 4.025.738 2.244.075 4.156-.256 5.575-.969.025-.012.044.231.044.537 0 .556 0 .569-.194.731-.575.475-1.8.856-3.363 1.037-.913.1-3.081.037-3.944-.119-.469-.088-.706-.1-.831-.056-.206.069-.381.369-.319.556.044.15.056.156-.563-.287a8.655 8.655 0 0 0-.744-.475l-.294-.156v-.9c0-.694.019-.887.081-.863.038.019.275.119.525.225zM14.6 12.781c2.275.4 4.281 1.869 5.287 3.875.525 1.044.756 2 .762 3.156.006 1.988-.669 3.637-2.087 5.069-1.144 1.156-2.5 1.844-4.125 2.094a7.295 7.295 0 0 1-6.313-2.137c-1.294-1.344-1.95-2.837-2.037-4.681-.181-3.538 2.425-6.731 6.006-7.369.675-.119 1.831-.119 2.506-.006zm12.706 1.631c-.206.219-.913.563-1.525.744-.788.225-1.594.344-2.712.4-.944.05-.969.05-1.113.219a.508.508 0 0 0-.012.687c.125.156.144.163.869.163 1.538 0 3.331-.356 4.331-.856l.294-.144v.556c0 .55 0 .563-.194.725-.462.387-1.45.756-2.512.938-.762.125-.775.131-.887.35-.131.25-.119.4.056.6.131.15.194.175.462.163.688-.031 2.006-.369 2.719-.706l.356-.169v.544c0 .544 0 .55-.212.738-.544.475-1.719.844-3.313 1.038-.613.075-.7.1-.831.25-.156.188-.181.331-.075.556.131.288.3.325 1.087.238a11.01 11.01 0 0 0 3.238-.85c.094-.038.106.006.106.481 0 .512-.006.531-.2.719-.419.406-1.55.806-2.813.994-.694.106-3.113.169-3.2.081-.025-.025.031-.256.113-.519.531-1.619.506-3.594-.063-5.175-.381-1.063-1.05-2.15-1.794-2.919-.238-.238-.337-.381-.262-.356.863.256 3.488.363 4.894.2 1.05-.125 2.119-.381 2.806-.675l.488-.206.019.525c.012.463 0 .537-.119.669zM4.825 17.163a.834.834 0 0 0 .406.075c.194-.025.213-.012.175.1-.138.475-.281 1.075-.281 1.188 0 .269-.088.294-.331.094l-.231-.188v-.688c0-.375.013-.681.031-.681.025 0 .125.044.231.1z"/><path d="M9.906 15.081c-.363.119-.512.213-.825.5-.419.381-.6.781-.631 1.387-.031.613.119 1.063.494 1.494a2.072 2.072 0 0 0 3.069.031c.419-.444.569-.881.537-1.525-.031-.575-.162-.887-.563-1.319-.356-.387-.825-.6-1.381-.625-.262-.012-.556.012-.7.056zm1.144 1.15c.094.069.238.219.313.337.125.175.144.275.125.575-.019.231-.069.419-.156.531-.575.775-1.831.394-1.831-.563 0-.45.238-.819.625-.981.231-.1.731-.044.925.1zM16.444 15.169c-.1.1-1.731 2.156-3.625 4.575-2.675 3.419-3.444 4.438-3.444 4.575 0 .456.581.694.906.363.081-.081 1.694-2.131 3.588-4.55 3.762-4.806 3.644-4.625 3.288-4.975-.206-.213-.475-.206-.712.012zM15.025 21.194c-.688.262-1.238 1.006-1.319 1.756-.081.788.375 1.613 1.119 2.019.306.175.381.188.956.188.531 0 .662-.019.888-.144.581-.306.938-.738 1.119-1.363.281-.969-.3-2.1-1.262-2.462-.444-.163-1.069-.163-1.5.006zm1.294 1.075c.306.2.512.625.469.975a.992.992 0 0 1-1.006.881.99.99 0 0 1-1.006-.844c-.05-.356.156-.813.469-1.012.294-.194.781-.194 1.075 0z"/></symbol><symbol id="icon-hourglass" viewBox="0 0 32 32"><path d="M2.969.075c-.331.175-.388.581-.119.831.163.15.2.156 1.063.156h.9v2.125h2.625v2.638c0 1.456.031 2.9.063 3.219.069.675.319 1.4.656 1.931.444.694.875 1.031 3.925 3.056 1.6 1.063 2.912 1.95 2.912 1.969s-1.313.9-2.912 1.969c-3.05 2.025-3.481 2.363-3.925 3.056a4.646 4.646 0 0 0-.656 1.931c-.031.319-.063 1.762-.063 3.212v2.644H4.813v2.125h-.9c-.863 0-.9.006-1.063.156-.263.244-.219.656.094.813.263.137 25.85.137 26.113 0 .313-.156.356-.569.094-.813-.163-.15-.2-.156-1.063-.156h-.9v-2.125h-2.625v-2.644c0-1.45-.031-2.894-.063-3.212a4.675 4.675 0 0 0-.656-1.931c-.444-.694-.875-1.031-3.925-3.056-1.6-1.069-2.913-1.95-2.913-1.969s1.313-.906 2.913-1.969c3.05-2.025 3.481-2.363 3.925-3.056a4.675 4.675 0 0 0 .656-1.931c.031-.319.063-1.763.063-3.219V3.187h2.625V1.062h.9c.863 0 .9-.006 1.063-.156s.212-.394.125-.625C29.163-.013 29.764 0 15.989 0 6.776.006 3.058.025 2.97.075zm23.156 1.519v.531H5.875V1.062h20.25v.531zm-2.687 4.594v3.006l-.163.488a3.171 3.171 0 0 1-.481.919c-.313.412-.444.512-3.512 2.569-1.75 1.175-3.231 2.137-3.281 2.137s-1.525-.963-3.281-2.137c-3.069-2.056-3.2-2.156-3.512-2.569a3.135 3.135 0 0 1-.481-.919l-.162-.488V3.188H23.44v3zm-4.157 12.643c3.069 2.056 3.2 2.156 3.512 2.569.212.288.375.587.481.919l.163.488v6.006H8.562v-6.006l.162-.488c.106-.331.269-.631.481-.919.313-.413.444-.512 3.513-2.569 1.756-1.175 3.231-2.137 3.281-2.137s1.531.962 3.281 2.137zm6.844 11.575v.531H5.875v-1.063h20.25v.531z"/><path d="m9.775 7.094-.162.162.025 1.012c.025 1.094.063 1.238.475 1.781.231.306 2.994 2.138 3.219 2.138.219 0 .544-.306.544-.512a.568.568 0 0 0-.1-.287c-.056-.081-.681-.531-1.394-1.006-1.269-.85-1.6-1.131-1.662-1.4-.012-.075-.037-.5-.044-.938-.019-.794-.019-.806-.194-.956-.231-.2-.506-.194-.706.006zM18.469 20.306a.495.495 0 0 0-.212.775c.075.1.719.569 1.431 1.044.762.512 1.356.95 1.444 1.075.137.188.15.288.181 1.094.031.825.044.894.181 1.044.2.212.55.225.744.019.131-.137.137-.206.137-1.063 0-1.569-.137-1.762-2.131-3.087-.738-.488-1.406-.9-1.494-.919s-.212-.006-.281.019z"/></symbol><symbol id="icon-calculator" viewBox="0 0 32 32"><path d="M20.531.094c-2.262.356-4.35 1.744-5.45 3.625l-.238.406h-11.9l-.35.3V31.7l.35.3h11.469c8.6 0 11.506-.019 11.606-.075a.726.726 0 0 0 .212-.169c.063-.075.081-2.1.081-8.975l.006-8.875.281-.219c.794-.613 1.688-1.787 2.15-2.844.75-1.719.856-3.775.281-5.5-.637-1.906-1.975-3.487-3.788-4.463-1.319-.713-3.206-1.025-4.713-.787zm2.356 1.056c3.325.637 5.637 3.563 5.469 6.919a6.643 6.643 0 0 1-3.594 5.606 7.194 7.194 0 0 1-2.156.706c-.637.1-1.863.037-2.519-.125-2.525-.625-4.506-2.713-4.994-5.262-.162-.863-.125-2.106.094-2.938.2-.763.675-1.744 1.144-2.35.363-.475 1.169-1.238 1.606-1.525.744-.494 1.794-.919 2.587-1.05.525-.087 1.863-.075 2.363.019zm-8.531 4.113a8.802 8.802 0 0 0-.144.5l-.113.425-9.156.031-.287.287-.019 3.138c-.013 2.181 0 3.213.05 3.375.131.438-.169.419 6.131.419h5.631l.294.244a7.699 7.699 0 0 0 6.6 1.606 8.35 8.35 0 0 0 1.606-.544c.131-.069.262-.119.3-.119.044 0 .063 2.55.063 8.156v8.156H3.624V5.187h5.381c4.275 0 5.375.019 5.35.075zm-.4 2.781c.075 1.469.456 2.681 1.206 3.85.15.231.275.438.275.45 0 .019-2.194.031-4.875.031H5.687V7.25h8.231l.037.794z"/><path d="M20.706 2.156c-1.481.269-2.869 1.156-3.706 2.375-.506.737-.9 1.85-.981 2.769l-.037.456 1.05-.037.038-.444c.137-1.537 1.081-2.912 2.494-3.644a4.03 4.03 0 0 1 1.625-.494l.469-.044.019-.519.019-.513-.269.006c-.15 0-.469.044-.719.087zM21.175 4.638l-.019.513-.262.05c-.962.162-1.538 1.231-1.137 2.112.169.375.4.612.775.787.269.131.406.15 1.019.15.931 0 1.144.1 1.137.55-.006.213-.119.363-.337.45-.1.037-.712.063-1.45.063h-1.275v1h1.563v1.063h1v-1.044l.256-.037c.144-.019.387-.113.544-.213 1.044-.644.962-2.169-.144-2.681-.269-.125-.413-.15-.988-.15-.806 0-1.056-.081-1.163-.375-.05-.156-.05-.244.012-.362.137-.294.288-.325 1.719-.325h1.325v-1h-1.563V4.126h-.994l-.019.513zM26.313 7.969c0 .35-.181 1.15-.356 1.563-.644 1.537-2.175 2.669-3.8 2.819l-.469.044v1.05l.269-.031c.144-.019.406-.05.575-.069.531-.069 1.163-.281 1.788-.606 1.706-.887 2.831-2.594 3.019-4.6l.038-.388h-1.063v.219zM4.806 15.662l-.15.162v1.744c0 1.725 0 1.744.144 1.881.138.144.169.144 1.781.163.9.012 1.7 0 1.781-.019a.673.673 0 0 0 .262-.156c.119-.119.125-.219.125-1.9v-1.781l-.162-.125c-.162-.125-.244-.131-1.9-.131H4.956l-.15.162zm2.944 1.869v1.031H5.687v-2.063H7.75v1.031zM9.969 15.656l-.156.15v3.437l.3.35h3.525l.3-.35v-1.656c0-1.731-.031-1.95-.281-2.05-.056-.019-.875-.037-1.819-.037h-1.719l-.15.156zm2.906 1.875v1.031h-2.063v-.988c0-.544.019-1.012.044-1.031.019-.025.488-.044 1.031-.044h.988v1.031zM15.119 15.662c-.15.156-.15.169-.169 1.731-.012 1.031 0 1.656.05 1.806.119.406.213.425 2.031.425s1.913-.019 2.031-.425c.05-.15.063-.775.05-1.806-.019-1.563-.019-1.575-.169-1.731l-.15-.162h-3.525l-.15.162zm2.944 1.869v1.031H16v-2.063h2.063v1.031zM4.963 20.712a.505.505 0 0 0-.269.288c-.088.269-.094 3.175-.006 3.413.125.331.144.331 2.038.337 1.75 0 1.756 0 1.887-.144.137-.144.137-.181.137-1.894-.006-1.875-.006-1.9-.338-2.025-.269-.1-3.206-.081-3.45.025zm2.787 2.007v1.031H5.687v-2.063H7.75v1.031zM10.15 20.688c-.325.131-.338.212-.338 2.05v1.706l.156.15.15.156h1.744c1.631 0 1.756-.006 1.894-.119l.15-.119.037-3.5-.156-.175-.15-.181-1.681-.012c-.919-.006-1.738.012-1.806.044zm2.725 2.031v1.031h-2.063v-2.063h2.063v1.031zM15.269 20.719c-.306.131-.344.369-.319 2.156.019 1.544.019 1.556.169 1.712l.15.163h3.525l.15-.163c.15-.156.15-.169.169-1.731.025-1.813-.006-2.006-.331-2.144-.306-.125-3.219-.125-3.512.006zm2.794 2v1.031H16v-2.063h2.063v1.031zM20.462 20.688c-.35.144-.337-.025-.337 4.613v4.275l.363.363h1.669c1.694 0 1.837-.019 2.012-.244.056-.075.075-1.119.081-4.394v-4.294l-.3-.35-1.681-.012c-.919-.006-1.738.012-1.806.044zm2.788 4.593v3.594h-2.063v-7.188h2.063v3.594zM4.831 25.962l-.175.15v3.525l.181.15.175.156 3.5-.038.119-.15c.113-.137.119-.262.119-1.894v-1.744l-.156-.15-.15-.156H5.006l-.175.15zm2.919 1.882v1.031H5.687v-2.063H7.75v1.031zM9.975 25.975l-.162.169v1.725c.006 1.813.006 1.844.294 1.994.181.1 3.325.106 3.537.006a.486.486 0 0 0 .225-.225c.1-.212.094-3.356-.006-3.538-.15-.288-.181-.288-1.994-.294h-1.725l-.169.163zm2.9 1.869v1.031h-2.063v-.988c0-.544.019-1.012.044-1.031.019-.025.488-.044 1.031-.044h.988v1.031zM15.144 25.962l-.175.15-.019 1.556c-.012.85 0 1.644.019 1.762a.778.778 0 0 0 .188.356l.15.15h3.437l.35-.3v-3.525l-.35-.3h-3.425l-.175.15zm2.919 1.882v1.031H16v-2.063h2.063v1.031z"/></symbol><symbol id="icon-profitability" viewBox="0 0 32 32"><path d="M19.012 2.019 17 4.032v1.156h2v5.294l.644.206c.788.244 2.113.875 2.825 1.338l.531.35V5.188h2V3.969L21.031 0l-2.019 2.019zM8.981 4.862 7 6.843v1.156h2l.012 2.181.019 2.181.469-.313c.669-.444 2.106-1.131 2.863-1.369l.637-.2V7.998h2V6.842l-1.988-1.987C11.924 3.768 11.018 2.874 11 2.874s-.925.894-2.019 1.987zM14.875 12.037c-3.875.488-7.1 3.088-8.331 6.713-.412 1.212-.506 1.806-.506 3.25 0 1.087.019 1.375.138 1.919.294 1.356.794 2.556 1.506 3.625 1.494 2.231 3.775 3.744 6.463 4.281 1 .2 2.712.2 3.706 0 4.306-.856 7.494-4.238 8.063-8.544.131-.962.087-2.356-.1-3.25-.731-3.512-3.194-6.325-6.55-7.494-1.081-.375-1.706-.481-3.012-.506a22.09 22.09 0 0 0-1.375.006zm4.15 4.819c0 .188-4.356 11.019-4.425 11.019-.131 0-1.662-.637-1.662-.694 0-.05 4.356-10.975 4.412-11.069.012-.019.4.113.856.294.644.262.825.356.819.45zm-5.575-.212c1.119.55 1.762 1.762 1.563 2.95a2.856 2.856 0 0 1-2.319 2.35c-1.213.212-2.5-.481-3.025-1.631-.262-.569-.306-1.356-.113-1.994.25-.819.956-1.544 1.787-1.819.294-.1.506-.119 1.006-.106.588.012.662.031 1.1.25zm7.019 5.45c.8.212 1.494.794 1.863 1.575.188.4.2.462.2 1.15 0 .706-.006.731-.231 1.188-.625 1.256-1.931 1.869-3.269 1.525-1.331-.35-2.256-1.744-2.05-3.094.262-1.681 1.875-2.762 3.488-2.344z"/><path d="M11.762 18.375c-.662.406-.581 1.381.137 1.656.363.137.656.087.944-.163a.913.913 0 0 0-.606-1.619c-.156 0-.35.05-.475.125zM19.294 24.012c-.25.15-.481.538-.481.813 0 .081.063.275.144.425.456.863 1.731.538 1.731-.444a.921.921 0 0 0-1.394-.794z"/></symbol><symbol id="icon-destination" viewBox="0 0 32 32"><path d="M15.144.563A8.372 8.372 0 0 0 11.5 1.907c-.619.406-1.7 1.5-2.113 2.125-.919 1.388-1.344 2.794-1.35 4.438 0 1.231.181 2.144.662 3.238.219.519.294.637 1.412 2.387l.881 1.375-1.856.031c-1.75.031-1.869.037-2.106.169-.287.15-.537.406-.675.675-.05.106-1.269 3.113-2.7 6.688-1.725 4.306-2.612 6.606-2.638 6.813-.069.619.244 1.181.819 1.488l.256.137H16.03c13.481 0 13.944-.006 14.156-.119.563-.3.844-.744.837-1.35-.006-.375-.194-.913-2.456-7.063-1.744-4.744-2.5-6.719-2.625-6.875a1.782 1.782 0 0 0-.481-.375c-.3-.156-.313-.156-2.375-.188l-2.069-.031.488-.781c.275-.431.706-1.113.969-1.519 1.081-1.675 1.475-2.894 1.481-4.606.006-1.044-.075-1.581-.369-2.5-.406-1.275-.981-2.206-1.962-3.194A7.834 7.834 0 0 0 17.493.658c-.606-.113-1.775-.162-2.35-.094zM17.7 1.706a6.96 6.96 0 0 1 3.25 1.856 6.859 6.859 0 0 1 2.031 4.6c.075 1.631-.325 2.981-1.331 4.494-.206.306-1.55 2.425-2.988 4.706-1.438 2.275-2.637 4.137-2.662 4.137s-1.225-1.863-2.662-4.137a925.884 925.884 0 0 0-3.037-4.794C9.32 11.074 8.945 9.787 9.02 8.162c.081-1.769.775-3.338 2.044-4.612 1.031-1.031 2.262-1.675 3.762-1.962.719-.131 2.119-.075 2.875.119zm-4.781 16.825c.7 1.1 1.269 2.019 1.269 2.044 0 .031-.081.05-.181.05-.338 0-1.725.262-2.225.419-.944.3-1.45.619-1.662 1.056-.238.5-.037 1 .544 1.375 1.106.706 3.938 1.131 6.431.969 3.419-.225 5.163-1.019 4.844-2.194-.181-.669-1.238-1.194-2.994-1.494-.425-.075-.85-.131-.95-.131s-.181-.019-.181-.05c0-.025.569-.944 1.269-2.044l1.262-2 1.144-.038.025 1.3.019 1.306.369.756c.419.863.688 1.175 1.225 1.419.188.087.512.175.719.2.206.019.462.063.575.1.238.069.525.375.731.788a2.12 2.12 0 0 0 1 .925c.3.137.494.175.981.2l.606.031.163.444c.087.244.163.462.163.481 0 .025-.469.056-1.044.063-1 .025-1.069.031-1.406.2-.625.306-1.006.863-1.087 1.581-.025.2-.081.45-.137.556-.05.1-.425.525-.831.938-.913.931-1.006 1.106-1.044 2.05l-.031.669h-5.981v-.8c0-1.319-.063-1.462-1.325-3.012-.519-.637-.631-.744-1.012-.938-.425-.212-.444-.219-1.35-.244-1.206-.025-1.506.05-2.338.587l-.619.406h-.825c-.756 0-.844-.012-1.037-.144-.331-.219-.469-.481-.513-.944a2.872 2.872 0 0 0-.162-.694c-.169-.387-.588-.813-.994-1.012-.294-.144-.444-.169-1.056-.194-.388-.019-.706-.044-.706-.069 0-.137 2.669-6.688 2.769-6.806l.131-.137 2.094.012 2.1.019 1.262 2zm12.218-1.894c.081.087.556 1.3 1.175 2.988l1.038 2.844-.3.019c-.2.012-.369-.019-.531-.1-.288-.15-.4-.269-.581-.631-.2-.394-.65-.856-1.025-1.038a2.32 2.32 0 0 0-.756-.2c-.45-.038-.8-.169-.981-.369-.056-.069-.231-.381-.387-.706l-.288-.594V16.5h1.25c1.219 0 1.256.006 1.387.137zm-9.949 5.488c.713 1.156.913 1.156 1.619.006l.381-.613.325.025c1.825.144 3.663.688 3.456 1.019-.019.038-.175.131-.344.219-1.375.694-4.994.938-7.544.5-1.175-.206-2.188-.619-2.05-.844.075-.125.775-.419 1.319-.556a17.148 17.148 0 0 1 2.413-.368c.019-.006.213.269.425.613zm-9.151 2.538c.306.225.406.419.469.9.1.837.5 1.425 1.175 1.744.306.144.45.163 1.163.181 1.081.031 1.313-.025 2.106-.538l.644-.419.931-.019c1.238-.031 1.213-.044 2.094 1.044.375.469.731.938.787 1.044.069.137.094.387.094 1.038v.863H8.912c-6.563 0-6.581 0-6.75-.131a.385.385 0 0 1-.163-.344c0-.131.394-1.194 1.006-2.725a828.93 828.93 0 0 0 1.063-2.663c.056-.144.063-.144.925-.125.763.019.894.038 1.044.15zm23.213 2.981c.425 1.175.788 2.225.8 2.337.019.15-.012.238-.137.356l-.156.163h-6.256v-.569c0-.313.031-.625.069-.7.044-.075.413-.488.831-.919.85-.869.994-1.113 1.094-1.813.069-.519.194-.725.512-.887.181-.094.387-.113 1.337-.113h1.125l.781 2.144z"/><path d="M15.313 2.538c-1.331.175-2.744.881-3.631 1.819a6.171 6.171 0 0 0-1.5 2.737c-.2.781-.2 2.006-.006 2.806.556 2.237 2.281 3.925 4.563 4.456.706.162 1.925.15 2.669-.031.681-.169 1.663-.637 2.219-1.063 1.069-.806 1.869-2.037 2.2-3.363.181-.731.194-1.963.031-2.662-.531-2.269-2.231-4.019-4.425-4.55-.512-.125-1.669-.206-2.119-.15zm2.093 1.15c1.669.525 2.894 1.756 3.419 3.438.119.4.144.6.144 1.344 0 1.031-.087 1.419-.5 2.25-.625 1.269-1.688 2.162-3.094 2.606-.4.125-.6.144-1.375.144s-.975-.019-1.375-.144c-1.694-.531-2.919-1.756-3.45-3.45-.125-.4-.144-.6-.144-1.375s.019-.975.144-1.375c.581-1.844 2.025-3.169 3.894-3.563.494-.1 1.844-.031 2.337.125z"/><path d="m16.587 7.756-2.069 2.063-.569-.581-.575-.581-.344.344-.344.35.831.825c.606.594.875.825.988.825s.713-.563 2.475-2.331l2.331-2.325-.656-.656-2.069 2.069z"/></symbol><symbol id="icon-royal" viewBox="0 0 32 32"><path d="M15.563 2.15c-1.081.237-1.781 1.2-1.662 2.294.05.487.25.9.619 1.256l.3.3-2.7 4.481c-1.488 2.469-2.731 4.525-2.775 4.569-.056.063-.588-.219-2.612-1.406l-2.538-1.488.037-.45c.044-.544-.044-.919-.331-1.375-.869-1.375-3.013-1.225-3.688.256a2.133 2.133 0 0 0 1.694 3.006l.319.044 1.406 5.1 1.412 5.106h21.913l1.413-5.106 1.406-5.1.319-.044a2.134 2.134 0 0 0 1.694-3.006c-.531-1.156-2.038-1.569-3.1-.85-.656.444-.994 1.169-.919 1.994l.044.425-2.544 1.488c-2.369 1.387-2.55 1.481-2.631 1.375a603.564 603.564 0 0 1-2.769-4.569l-2.688-4.456.269-.244c.363-.313.619-.85.663-1.356.113-1.419-1.175-2.55-2.55-2.244zM5.394 26.375c-.556.113-1 .462-1.281 1-.206.4-.206 1.1 0 1.5.206.394.537.719.912.887l.319.144h21.313l.319-.144c.375-.169.706-.494.913-.887.206-.4.206-1.1 0-1.5a1.982 1.982 0 0 0-.913-.887l-.319-.144-10.5-.006c-5.775-.006-10.619.012-10.762.038z"/></symbol></defs></svg>