<svg aria-hidden="true" style="position: absolute; width: 0; height: 0; overflow: hidden;" version="1.1" xmlns="http://www.w3.org/2000/svg" xmlns:xlink="http://www.w3.org/1999/xlink">
<defs>
<symbol id="icon-logo" viewBox="0 0 127 32">
<path fill="#fff" style="fill: var(--color1, #fff)" d="M31.36 16.32c0 8.66-6.877 15.68-15.36 15.68s-15.36-7.020-15.36-15.68c0-8.66 6.877-15.68 15.36-15.68s15.36 7.020 15.36 15.68z"></path>
<path fill="#d41443" style="fill: var(--color2, #d41443)" d="M11.849 0.561c-7.405 2.243-11.849 8.074-11.849 15.442 0 6.022 3.091 11.277 8.179 13.904 2.64 1.345 3.027 0.384 0.579-1.474-1.738-1.409-2.061-2.050-2.061-4.421 0-1.666-0.386-3.011-0.966-3.524-1.158-0.961-1.288-3.46-0.128-4.357 0.45-0.384 0.901-1.666 0.965-2.819 0.323-4.228 4.895-8.201 9.467-8.201s9.144 3.972 9.466 8.201c0.064 1.153 0.515 2.435 0.966 2.819 1.158 0.897 1.030 3.396-0.129 4.357-0.579 0.513-0.966 1.858-0.966 3.524 0 2.371-0.321 3.012-2.060 4.421-2.705 2.115-1.932 2.883 1.094 1.025 4.251-2.627 7.406-8.33 7.406-13.391 0-10.124-10.561-18.325-19.964-15.506z"></path>
<path fill="#d41443" style="fill: var(--color2, #d41443)" d="M12.687 7.994c-1.16 0.513-2.125 1.154-2.125 1.538 0 0.705 3.478 1.987 5.474 1.987s5.474-1.281 5.474-1.987c0-0.768-3.993-2.499-5.603-2.499-0.644 0.064-2.125 0.448-3.22 0.961zM45.851 11.326c-0.966 0.256-1.158 1.089-1.158 5.702v5.382h4.572l-0.193-5.574c-0.193-5.83-0.451-6.28-3.22-5.51zM53.386 11.646c-2.125 1.154-2.898 2.563-2.898 5.318 0 3.78 2.061 5.574 5.86 5.318 2.576-0.192 2.833-0.385 3.027-1.987s0.064-1.73-1.932-1.602c-2.061 0.192-2.125 0.064-2.125-2.051s0.129-2.243 1.997-2.050c1.545 0.128 2.125-0.128 2.382-1.089 0.129-0.641 0-1.538-0.387-1.923-0.901-0.897-4.25-0.897-5.924 0.064zM61.050 11.71c-0.194 0.513-0.258 3.012-0.129 5.638l0.193 4.742h4.186c3.864 0 4.186-0.128 4.379-1.474 0.193-1.217-0.064-1.409-2.060-1.409-1.288 0-2.319-0.32-2.319-0.641 0-0.385 0.902-0.641 1.932-0.641 1.481 0 1.932-0.256 1.932-1.281s-0.451-1.281-1.932-1.281c-1.030 0-1.932-0.32-1.932-0.641 0-0.385 0.837-0.641 1.868-0.641 1.804 0 3.027-1.409 2.254-2.627-0.58-0.961-7.985-0.705-8.371 0.256zM73.993 11.518c-2.125 0.833-2.962 2.307-3.027 4.998-0.065 4.613 1.803 6.215 6.633 5.766 1.868-0.128 2.189-0.448 2.189-1.794 0-1.409-0.257-1.602-2.061-1.409-1.546 0.128-2.125-0.064-2.447-1.089-0.58-1.987 0.644-3.588 2.705-3.588 1.224 0 1.868-0.384 1.996-1.217 0.451-2.051-2.833-3.011-5.989-1.666zM81.914 11.262c-0.323 0.256-0.515 2.883-0.515 5.83v5.382l2.060-0.192c1.61-0.128 2.19-0.577 2.512-1.795l0.386-1.602 0.515 1.73c0.387 1.474 0.837 1.795 2.512 1.795 2.769 0 3.091-0.449 1.932-2.691-0.708-1.41-0.837-2.115-0.322-2.627 0.837-0.833 0.902-3.652 0.129-4.87-0.644-1.025-8.371-1.858-9.208-0.961zM87.194 14.722c0 0.705-0.257 1.281-0.644 1.281-0.322 0-0.644-0.576-0.644-1.281s0.322-1.282 0.644-1.282c0.387 0 0.644 0.577 0.644 1.282zM93.441 11.326c-0.258 0.192-0.451 2.819-0.451 5.766v5.318h4.186c4.057 0 4.186-0.064 4.186-1.602 0-1.346-0.322-1.602-1.932-1.602-1.030 0-1.932-0.32-1.932-0.641 0-0.385 0.708-0.641 1.61-0.641 1.159 0 1.61-0.321 1.61-1.282s-0.451-1.281-1.61-1.281c-0.902 0-1.61-0.32-1.61-0.641 0-0.384 0.902-0.641 1.932-0.641 1.61 0 1.932-0.256 1.932-1.602 0-1.538-0.193-1.602-3.735-1.602-2.061 0-3.992 0.192-4.186 0.448zM106.45 11.262c-1.16 0.32-4.122 8.842-3.542 10.252 0.515 1.281 3.413 1.153 4.186-0.192 0.579-1.089 0.644-1.089 1.803 0 1.482 1.281 4.701 1.474 4.701 0.256 0-0.384-0.644-2.947-1.482-5.574-1.288-4.228-1.674-4.805-3.027-4.933-0.902 0-2.061 0.064-2.64 0.192zM108.253 17.092c-0.193 0.641-0.322 0.256-0.322-0.769 0-1.089 0.129-1.538 0.322-1.153 0.129 0.448 0.129 1.345 0 1.922zM115.723 11.326c-0.58 0.192-0.837 1.986-0.837 5.702v5.382h1.868c1.61 0 1.932-0.321 2.189-1.795 0.257-1.666 0.257-1.666 0.772-0.32 0.258 0.833 0.902 1.474 1.352 1.474 0.515 0 1.224-0.641 1.546-1.474 0.515-1.346 0.58-1.346 0.58 0.384 0.065 1.602 0.257 1.795 2.061 1.602l1.996-0.192 0.065-5.318c0.129-4.933 0.064-5.318-1.288-5.638-2.061-0.512-3.799 0.705-4.379 3.076l-0.451 2.115-0.708-2.243c-0.902-3.012-2.254-3.78-4.765-2.755zM9.016 11.967c-0.193 0.256-0.387 1.089-0.387 1.922 0 1.474 0.064 1.474 7.406 1.474 7.341 0 7.405 0 7.405-1.474 0-2.179-0.579-2.435-2.64-1.409-2.319 1.217-7.213 1.217-9.531 0-1.030-0.513-1.997-0.705-2.254-0.513zM7.148 17.669c-1.030 1.089 0.708 1.538 5.731 1.538h5.409v2.243c0 1.217 0.322 2.243 0.644 2.243 0.386 0 0.644-0.961 0.644-2.179 0-2.115 0.129-2.243 2.576-2.435 1.416-0.128 2.576-0.512 2.576-0.832 0-0.705-16.872-1.282-17.581-0.577z"></path>
<path fill="#d41443" style="fill: var(--color2, #d41443)" d="M8.629 23.308c0 3.524 1.224 4.229 7.406 4.229s7.405-0.705 7.405-4.229c0-1.538-0.322-2.179-0.966-2.179-0.579 0-0.965 0.577-0.965 1.538 0 3.588-4.895 3.908-5.603 0.384-0.322-1.858-0.515-1.922-3.799-1.922h-3.478v2.179zM12.622 30.548c0.387 2.051 6.955 1.859 6.955-0.128 0-0.705-0.837-0.961-3.606-0.961-3.027 0-3.542 0.192-3.348 1.089z"></path>
</symbol>
<symbol id="icon-arrow" viewBox="0 0 32 32">
<path d="M16 0c-8.837 0-16 7.163-16 16s7.163 16 16 16 16-7.163 16-16-7.163-16-16-16zM16 29c-7.18 0-13-5.82-13-13s5.82-13 13-13 13 5.82 13 13-5.82 13-13 13z"></path>
<path d="M11.086 22.086l2.829 2.829 8.914-8.914-8.914-8.914-2.828 2.828 6.086 6.086z"></path>
</symbol>
<symbol id="icon-open-menu" viewBox="0 0 46 32">
<path fill="none" stroke-width="2.2857" stroke-miterlimit="4" stroke-linecap="butt" stroke-linejoin="miter" d="M0 2.286h45.714M0 16h45.714M0 29.714h45.714"></path>
</symbol>
<symbol id="icon-close-menu" viewBox="0 0 32 32">
<path stroke-width="2" stroke-miterlimit="4" stroke-linecap="butt" stroke-linejoin="miter"  d="M2.52 2l26.96 28M2 29.48l28-26.96"></path>
</symbol>
<symbol id="icon-github" viewBox="0 0 32 32">
<path d="M32 16c0 8.837-7.163 16-16 16s-16-7.163-16-16c0-8.837 7.163-16 16-16s16 7.163 16 16z"></path>
<path fill="#fff" style="fill: var(--color2, #fff)" d="M16 6.588c-5.17 0-9.412 4.242-9.412 9.412 0 4.411 3.096 8.419 7.206 9.412v-3.113c-0.408 0.088-0.781 0.091-1.196-0.031-0.556-0.164-1.008-0.535-1.344-1.099-0.214-0.36-0.593-0.753-0.988-0.724l-0.097-1.098c0.856-0.073 1.594 0.521 2.033 1.258 0.196 0.328 0.421 0.52 0.709 0.605 0.278 0.083 0.577 0.043 0.925-0.080 0.088-0.697 0.408-0.958 0.649-1.327-2.452-0.365-3.429-1.666-3.816-2.692-0.514-1.364-0.238-3.066 0.67-4.143 0.018-0.021 0.050-0.075 0.038-0.113-0.417-1.259 0.090-2.3 0.109-2.41 0.481 0.141 0.559-0.143 2.089 0.786l0.264 0.159c0.111 0.066 0.075 0.028 0.186 0.019 0.59-0.166 1.269-0.266 1.97-0.276l0.006-0c0.668 0.008 1.336 0.104 2.002 0.284l0.086 0.009c-0.008-0.002 0.024-0.006 0.075-0.037 1.911-1.158 1.842-0.779 2.355-0.946 0.019 0.111 0.519 1.169 0.106 2.411-0.056 0.171 1.656 1.739 0.708 4.256-0.388 1.026-1.365 2.328-3.816 2.693 0.314 0.48 0.692 0.734 0.69 1.722v3.886c4.109-0.993 7.206-5 7.206-9.412 0-5.17-4.242-9.412-9.412-9.412z"></path>
</symbol>
<symbol id="icon-telegram" viewBox="0 0 32 32">
<path d="M32 16c0 8.837-7.163 16-16 16s-16-7.163-16-16c0-8.837 7.163-16 16-16s16 7.163 16 16z"></path>
<path fill="#fff" style="fill: var(--color2, #fff)" d="M12.867 18.376l-0.317 4.169c0.455 0 0.651-0.183 0.888-0.401l2.13-1.901 4.414 3.018c0.81 0.421 1.381 0.199 1.6-0.696l2.897-12.673c0.258-1.117-0.433-1.554-1.221-1.28l-17.032 6.086c-1.162 0.422-1.145 1.026-0.198 1.301l4.355 1.264 10.114-5.907c0.476-0.295 0.909-0.132 0.553 0.163l-8.182 6.856z"></path>
</symbol>
<symbol id="icon-facebook" viewBox="0 0 32 32">
<path d="M16 32c8.837 0 16-7.163 16-16s-7.163-16-16-16-16 7.163-16 16 7.163 16 16 16z"></path>
<path fill="#fff" style="fill: var(--color2, #fff)" d="M20.446 15.981h-2.611v9.619h-3.955v-9.619h-1.88v-3.379h1.88v-2.187c0-1.564 0.739-4.014 3.991-4.014l2.929 0.012v3.281h-2.125c-0.348 0-0.839 0.176-0.839 0.922v1.989h2.955l-0.345 3.377z"></path>
</symbol>
<symbol id="icon-circle" viewBox="0 0 32 32">
<path fill="#d9d9d9" style="fill: var(--color3, #d9d9d9)" d="M32 16c0 8.837-7.163 16-16 16s-16-7.163-16-16c0-8.837 7.163-16 16-16s16 7.163 16 16z"></path>
</symbol>
<symbol id="icon-hause" viewBox="0 0 32 32">
<path fill="#d31342" style="fill: var(--color4, #d31342)" d="M31.6 16.765c0.246-0.246 0.399-0.586 0.399-0.962 0-0.435-0.204-0.822-0.521-1.070l-0.003-0.002-14.301-11.675c-0.314-0.243-0.713-0.389-1.146-0.389-0.448 0-0.86 0.157-1.183 0.419l0.004-0.003-14.349 12.267c-0.306 0.249-0.5 0.626-0.5 1.049 0 0.39 0.166 0.741 0.43 0.988l0.001 0.001 0.36 0.347c0.595 0.581 1.56 0.651 2.152 0.155l1.072-0.896v13.117c0 0.803 0.701 1.456 1.563 1.456h5.592c0.864 0 1.563-0.653 1.563-1.456v-9.176h7.133v9.173c-0 0.011-0 0.023-0 0.035 0 0.785 0.636 1.421 1.421 1.421 0.016 0 0.032-0 0.048-0.001l-0.002 0h5.928c0.861 0 1.56-0.651 1.56-1.456v-12.928s0.299 0.24 0.664 0.541c0.363 0.299 1.131 0.059 1.709-0.536l0.408-0.419z"></path>
</symbol>
<symbol id="icon-heart" viewBox="0 0 28 32">
<path fill="#ffa5ba" stroke="#ffa5ba" stroke-width="0.3077" stroke-miterlimit="4" stroke-linecap="butt" stroke-linejoin="miter" style="fill: var(--color1, #ffa5ba); stroke: var(--color1, #ffa5ba)" d="M0.666 11.161c0.588 2.695 1.895 5.088 3.953 7.162 1.839 1.86 3.455 2.991 6.008 4.164l1.238 0.582v8.47h1.73v-7.902l0.159 0.047h0.001c0.23 0.066 0.567 0.066 0.796 0h0.001l0.159-0.047v7.902h1.73v-8.481l1.179-0.536c2.469-1.138 4.263-2.372 6.008-4.142 2.786-2.829 4.217-6.052 4.217-9.561 0.012-3.85-2.010-7-5.214-8.076-0.689-0.239-1.054-0.274-2.316-0.262M0.666 11.161l13.614-8.305-0.097-0.073M0.666 11.161c-0.134-0.615-0.202-1.455-0.205-2.276s0.060-1.636 0.194-2.201l0.011 4.477zM20.317 0.482v0zM20.317 0.482c-0.658 0.006-1.070 0.020-1.444 0.074-0.376 0.054-0.709 0.146-1.208 0.303h-0.002c-1.188 0.386-2.356 0.994-3.132 1.632l-0.001 0.001-0.346 0.291M14.183 2.783l-0.543-0.401c-1.673-1.231-3.385-1.83-5.396-1.911h-0.001c-0.163-0.006-0.354-0.009-0.547-0.009-0.172 0-0.343 0.003-0.513 0.008l0.025-0.001c-0.313 0.010-0.586 0.031-0.733 0.063M14.183 2.783l-7.708-2.251M6.475 0.532h-0.001l0.034 0.15-0.033-0.15zM9.012 8.596l0.001 0.001c0.522 0.381 1.185 0.865 1.481 1.084 0.805 0.597 2.132 1.341 3.138 1.761M9.012 8.596l4.62 2.847M9.012 8.597c-1.232-0.914-2.577-1.585-3.762-1.879-0.503-0.123-1.117-0.227-1.743-0.29l-0.060-0.005c-0.213-0.024-0.461-0.038-0.712-0.039h-0.001c-0 0-0.001 0-0.001 0-0.079 0-0.156 0.007-0.231 0.020l0.008-0.001c-0.049 0.095-0.1 0.264-0.148 0.496-0.052 0.252-0.095 0.561-0.127 0.892-0.063 0.665-0.078 1.407-0.020 1.948 0.316 2.926 1.588 5.398 4.031 7.743h0.001c1.927 1.865 4.326 3.319 7.044 4.236l0.002 0.001 0.862 0.305 0.875-0.305c2.542-0.871 5.036-2.326 6.844-4.018 1.246-1.168 1.889-1.964 2.711-3.37v-0.001c0.255-0.428 0.604-1.204 0.874-1.892 0.135-0.343 0.249-0.662 0.32-0.9 0.026-0.086 0.046-0.158 0.058-0.217-0.042 0.011-0.090 0.025-0.145 0.041-0.201 0.060-0.473 0.151-0.767 0.26h-0.001c-1.188 0.433-2.967 0.816-4.401 0.944h-0.001l-0.063 0.005c-0.323 0.026-0.548 0.045-0.716 0.089-0.166 0.043-0.252 0.106-0.311 0.215-0.067 0.126-0.107 0.329-0.127 0.677-0.018 0.322-0.018 0.746-0.018 1.313v0.121c0 1.098-0.014 1.746-0.096 2.184-0.035 0.208-0.101 0.394-0.194 0.563l0.005-0.009c-0.086 0.154-0.196 0.283-0.327 0.417-0.235 0.246-0.47 0.425-0.734 0.54s-0.546 0.164-0.871 0.164c-0.5 0-0.927-0.099-1.284-0.317s-0.63-0.546-0.835-0.983c-0.105-0.223-0.164-0.436-0.198-0.864-0.033-0.423-0.042-1.067-0.042-2.156 0-0.906-0.009-1.537-0.031-1.957-0.007-0.174-0.022-0.336-0.046-0.495l0.003 0.025c-0.007-0.045-0.015-0.085-0.027-0.123l0.002 0.006c-0.003-0.011-0.007-0.020-0.011-0.028l0 0.001M9.012 8.597l5.59 3.354M13.632 11.442c0.239 0.103 0.472 0.213 0.654 0.31 0.091 0.049 0.167 0.093 0.225 0.13 0.034 0.023 0.064 0.045 0.092 0.069l-0.001-0.001M13.632 11.442l0.97 0.508M13.159 4.234l-0.001-0.001c-0.238-0.226-0.669-0.537-1.14-0.833-0.47-0.295-0.968-0.566-1.336-0.718-0.416-0.159-0.919-0.303-1.436-0.408l-0.064-0.011c-1.975-0.362-3.489 0.022-4.825 1.21l-0.001 0.001c-0.282 0.246-0.581 0.571-0.796 0.843-0.079 0.097-0.155 0.205-0.224 0.317l-0.007 0.013c-0.202-0.019 0.189 0.051 0.581 0.117l0.571 0.080c1.231 0.192 2.186 0.449 3.209 0.943 1.020 0.491 2.103 1.214 3.593 2.329l0.001 0.001c0.605 0.465 1.626 1.059 2.651 1.541l0.002 0.001c0.458 0.226 0.898 0.452 1.238 0.636 0.17 0.092 0.316 0.175 0.428 0.242 0.055 0.034 0.103 0.065 0.142 0.091 0.036 0.025 0.073 0.052 0.098 0.080 0.128 0.137 0.234 0.274 0.318 0.447s0.142 0.372 0.182 0.631c0.081 0.512 0.098 1.281 0.098 2.57 0 1.17 0.003 1.785 0.033 2.135 0.015 0.175 0.036 0.271 0.061 0.332 0.022 0.053 0.055 0.099 0.096 0.134l0 0c0.246 0.24 0.583 0.23 0.762 0.031l0.004-0.004c0.049-0.052 0.097-0.135 0.125-0.456 0.027-0.32 0.033-0.837 0.033-1.723 0-1.172 0.029-1.886 0.16-2.378 0.066-0.25 0.16-0.448 0.292-0.622 0.13-0.172 0.293-0.314 0.487-0.459l0.002-0.001c0.197-0.142 0.368-0.235 0.647-0.308 0.271-0.071 0.642-0.124 1.24-0.193 1.865-0.207 2.942-0.447 4.231-0.937 0.404-0.154 0.703-0.269 0.927-0.372 0.225-0.103 0.357-0.188 0.439-0.273 0.076-0.079 0.115-0.168 0.134-0.302 0.020-0.142 0.014-0.324 0.002-0.588v-0.003c-0.012-0.46-0.128-1.233-0.255-1.706v-0.001c-0.709-2.682-2.922-4.56-5.317-4.56-1.787 0-3.967 0.839-5.314 2.060l-0.001 0.001c-0.22 0.197-0.405 0.352-0.572 0.459s-0.327 0.175-0.495 0.182c-0.17 0.007-0.327-0.050-0.486-0.149-0.156-0.098-0.323-0.242-0.517-0.425zM2.489 6.406c-0.002 0.001-0.001 0.001 0.001 0zM2.526 6.369v-0.001z"></path>
</symbol>
<symbol id="icon-fruits" viewBox="0 0 32 32">
<path fill="#ffa5ba" style="fill: var(--color1, #ffa5ba)" d="M29.626 21.411c-1.292-0.458-2.381-0.344-3.242 0.018 0.145-0.877 0.47-1.832 1.169-2.481 0.214-0.195 0.348-0.476 0.348-0.787 0-0.588-0.477-1.065-1.065-1.065-0.283 0-0.541 0.111-0.731 0.291l0-0c-1.229 1.14-1.706 2.749-1.874 4.081-0.307-0.142-0.662-0.25-1.035-0.308l-0.023-0.003 1.89-9.83c0.012-0.061 0.019-0.13 0.019-0.202 0-0.588-0.477-1.064-1.064-1.064-0 0-0 0-0 0h-0.205c0.094-0.5 0.141-0.997 0.138-1.47-0.016-1.994-0.903-3.495-2.374-4.017-1.409-0.5-2.589-0.35-3.507 0.066 0.146-0.976 0.495-2.063 1.282-2.794 0.214-0.195 0.348-0.476 0.348-0.787 0-0.588-0.477-1.065-1.065-1.065-0.283 0-0.541 0.111-0.731 0.291l0-0c-1.32 1.226-1.815 2.966-1.981 4.387-0.735-0.348-1.644-0.526-2.709-0.33-1.094-1.571-2.612-2.295-4.090-1.941-1.451 0.348-2.358 1.115-2.9 1.962-0.41-0.899-0.712-2.001-0.452-3.036 0.018-0.073 0.028-0.157 0.028-0.244 0-0.588-0.477-1.065-1.065-1.065-0.49 0-0.903 0.331-1.027 0.781l-0.002 0.007c-0.439 1.746 0.095 3.475 0.73 4.758-1.016 0.138-2.118 0.65-3.049 1.866-0.578 0.755-0.773 1.698-0.596 2.7-0.408 0.155-0.692 0.543-0.692 0.997 0 0.071 0.007 0.14 0.020 0.207l-0.001-0.007 3.809 19.809c0.096 0.502 0.535 0.864 1.046 0.864h15.237c0.51 0 0.949-0.362 1.046-0.864l0.037-0.195c0.287 0.198 0.595 0.364 0.927 0.486 1.267 0.472 2.447 0.278 3.044 0.118 0.316 0.084 0.795 0.179 1.364 0.179 0.506 0 1.084-0.075 1.68-0.297 2.36-0.879 3.615-3.839 3.596-6.178-0.015-1.904-0.865-3.34-2.275-3.839zM22.675 12.191c-0.491 4.705-4.452 7.909-9.971 7.909s-9.481-3.204-9.971-7.909h19.942zM16.032 7.515c0.184 0.349 0.536 0.567 0.931 0.567s0.746-0.218 0.931-0.567c0.203-0.312 0.46-0.572 0.76-0.771l0.010-0.006c0.629-0.408 1.35-0.46 2.203-0.157 0.851 0.301 0.952 1.518 0.956 2.027 0.004 0.463-0.064 0.961-0.19 1.453h-7.126c0.236-1.19 0.094-2.492-0.289-3.669 0.392 0.022 0.751 0.149 1.055 0.351l-0.008-0.005c0.31 0.205 0.567 0.465 0.763 0.767l0.006 0.010zM3.077 8.724c0.55-0.719 1.183-1.069 1.933-1.069h0.002c0.57 0 1.016 0.207 1.066 0.232 0.341 0.189 0.749 0.172 1.078-0.037 0.332-0.211 0.51-0.592 0.481-0.983-0.006-0.077-0.115-1.894 1.983-2.397 0.877-0.211 1.626 0.754 1.906 1.178 0.808 1.221 1.222 3.108 0.777 4.413h-9.348c-0.141-0.443-0.179-0.943 0.122-1.336zM5.852 29.87l-2.111-10.977c0.138 0.132 0.28 0.262 0.428 0.388 2.208 1.901 5.239 2.948 8.535 2.948s6.328-1.047 8.535-2.948c0.051-0.044 0.102-0.090 0.152-0.134l-0.431 2.243c-0.020 0.006-0.040 0.013-0.061 0.020-1.411 0.5-2.261 1.935-2.276 3.839-0.010 1.165 0.297 2.483 0.898 3.622l-0.192 0.998h-13.477zM27.562 29.432c-0.943 0.351-1.881 0.017-1.916 0.004-0.114-0.046-0.246-0.073-0.384-0.073s-0.27 0.027-0.391 0.076l0.007-0.003c-0.010 0.004-0.96 0.352-1.917-0.004-1.338-0.499-2.223-2.556-2.21-4.166 0.004-0.465 0.095-1.578 0.858-1.849 0.279-0.107 0.601-0.17 0.937-0.175l0.002-0c1.107 0 1.658 0.812 1.782 1.024 0.184 0.35 0.535 0.57 0.931 0.57s0.748-0.22 0.931-0.57c0.156-0.265 0.977-1.468 2.721-0.849 0.763 0.271 0.854 1.383 0.858 1.85 0.013 1.609-0.872 3.667-2.21 4.165z"></path>
</symbol>
<symbol id="icon-milk" viewBox="0 0 32 32">
<path fill="#ffa5ba" style="fill: var(--color1, #ffa5ba)" d="M8.093 0.144c-0.349 0.188-0.552 0.563-0.552 1.006 0.006 0.813 0.209 1.556 0.614 2.2l0.177 0.294-0.337 0.381c-0.381 0.425-0.473 0.581-0.644 1.088-0.141 0.412-0.154 1.162-0.031 1.581 0.429 1.437 1.854 2.269 3.247 1.9 0.473-0.125 0.762-0.282 1.203-0.657l0.375-0.312 0.35 0.175c0.196 0.1 0.528 0.243 0.742 0.324l0.381 0.138v0.7c0 1.106 0.227 1.763 0.81 2.356s1.498 0.9 2.291 0.762c0.564-0.1 1.117-0.381 1.491-0.762 0.584-0.594 0.811-1.251 0.811-2.356v-0.7l0.387-0.138c0.209-0.081 0.541-0.225 0.737-0.325l0.349-0.175 0.374 0.312c0.442 0.375 0.731 0.531 1.203 0.657 1.394 0.369 2.819-0.463 3.248-1.9 0.123-0.419 0.111-1.169-0.031-1.581-0.172-0.507-0.264-0.663-0.644-1.088l-0.337-0.381 0.178-0.294c0.405-0.643 0.608-1.388 0.614-2.2 0-0.444-0.204-0.819-0.553-1.006l-0.264-0.144h-15.926l-0.264 0.144zM22.829 2.099c0 0.019-0.179 0.313-0.399 0.662-0.651 1.032-0.626 1.256 0.239 2.17 0.314 0.331 0.602 0.662 0.645 0.737 0.233 0.463-0.234 1.038-0.749 0.919-0.124-0.026-0.394-0.243-0.787-0.631-0.786-0.775-1.056-0.863-1.658-0.518-0.694 0.399-1.578 0.806-2.008 0.924-0.608 0.175-0.817 0.307-0.976 0.637-0.129 0.256-0.141 0.363-0.141 1.363 0 1.231-0.050 1.431-0.399 1.6-0.252 0.125-0.301 0.125-0.553 0-0.35-0.169-0.399-0.369-0.399-1.6 0-1-0.013-1.107-0.135-1.363-0.166-0.324-0.374-0.462-0.982-0.637-0.528-0.15-1.308-0.493-1.738-0.774-0.405-0.262-0.762-0.363-1.043-0.313-0.185 0.038-0.369 0.181-0.86 0.662-0.405 0.394-0.694 0.625-0.817 0.65-0.509 0.119-0.976-0.463-0.742-0.919 0.043-0.075 0.332-0.406 0.644-0.737 0.865-0.913 0.89-1.137 0.239-2.169-0.221-0.349-0.399-0.643-0.399-0.662 0-0.025 2.929-0.037 6.508-0.037s6.508 0.013 6.508 0.037zM6.245 13.206c-0.314 0.212-0.485 0.512-0.485 0.844 0 0.225 3.119 16.925 3.229 17.275 0.055 0.194 0.282 0.425 0.522 0.55 0.227 0.125 0.387 0.125 6.809 0.125s6.582 0 6.809-0.125c0.239-0.125 0.467-0.356 0.522-0.55 0.111-0.35 3.229-17.050 3.229-17.275 0-0.331-0.172-0.631-0.485-0.844l-0.209-0.144h-19.732l-0.209 0.144zM24.455 15.481c-0.061 0.5-0.418 1.587-0.682 2.081-1.283 2.375-3.715 3.819-6.729 3.987-2.278 0.132-4.205-0.331-5.82-1.393-0.94-0.625-1.704-1.443-2.247-2.402l-0.018-0.035c-0.307-0.544-0.712-1.713-0.774-2.238l-0.043-0.356h16.356l-0.043 0.356zM10.15 21.919c2.634 1.775 6.569 2.244 9.885 1.169 1.105-0.356 2.235-0.956 3.18-1.687 0.276-0.219 0.294-0.219 0.264-0.082-0.018 0.081-0.38 1.994-0.804 4.244s-0.78 4.156-0.798 4.232l-0.031 0.143h-11.052l-0.031-0.143c-0.019-0.075-0.374-1.981-0.798-4.232s-0.786-4.163-0.804-4.243c-0.031-0.138-0.013-0.138 0.264 0.081 0.16 0.125 0.492 0.356 0.724 0.518z"></path>
</symbol>
<symbol id="icon-big-button" viewBox="0 0 32 32">
<path d="M8.75 0.138c-0.275 0.106-0.481 0.275-1.069 0.856-0.9 0.894-1.019 1.106-1.025 1.788 0 0.362 0.031 0.569 0.119 0.75 0.081 0.169 2.081 2.219 6.219 6.363l6.1 6.106-6.106 6.113c-4.75 4.75-6.138 6.169-6.231 6.387-0.088 0.188-0.131 0.419-0.131 0.688 0 0.644 0.181 0.956 1.050 1.819 0.613 0.606 0.794 0.744 1.094 0.856 0.456 0.175 0.819 0.175 1.275 0.006 0.35-0.125 0.675-0.444 7.688-7.456 8.106-8.1 7.644-7.587 7.644-8.413s0.462-0.313-7.644-8.412c-7.019-7.019-7.338-7.331-7.688-7.456-0.45-0.163-0.85-0.163-1.294 0.006z"></path>
</symbol>
<symbol id="icon-close" viewBox="0 0 32 32">
<path d="M26.667 7.303l-1.97-1.97-7.808 7.808-7.808-7.808-1.97 1.97 7.808 7.808-7.808 7.808 1.97 1.97 7.808-7.808 7.808 7.808 1.97-1.97-7.808-7.808 7.808-7.808z"></path>
</symbol>
<symbol id="icon-maps" viewBox="0 0 32 32">
<path d="M15.188 0.037c-1.431 0.163-2.25 0.338-3.175 0.681-2.45 0.919-4.5 2.6-5.894 4.844-1.313 2.119-1.919 4.863-1.619 7.313 0.487 3.944 3.3 9.381 7.963 15.406 1.1 1.425 2.519 3.131 2.844 3.425 0.431 0.387 0.956 0.387 1.388 0 0.325-0.294 1.744-2 2.844-3.425 4.194-5.419 6.887-10.344 7.738-14.169 0.219-0.981 0.288-1.619 0.288-2.644-0.006-3-1.206-5.869-3.375-8.031-1.788-1.794-3.894-2.875-6.375-3.281-0.587-0.094-2.2-0.169-2.625-0.119zM16.731 5.819c2.331 0.313 4.262 1.987 4.894 4.244 0.169 0.594 0.231 1.787 0.131 2.438-0.294 1.85-1.506 3.475-3.225 4.313-1.012 0.494-2.050 0.681-3.106 0.563-0.825-0.094-1.244-0.212-1.956-0.563-1.719-0.838-2.931-2.463-3.225-4.313-0.1-0.65-0.037-1.844 0.131-2.438 0.781-2.787 3.537-4.631 6.356-4.244z"></path>
</symbol>
<symbol id="icon-investment" viewBox="0 0 32 32">
<path d="M7.938 3.569c-1.862 0.225-3.281 0.725-3.956 1.387-0.194 0.188-0.375 0.431-0.425 0.575-0.075 0.206-0.087 1.306-0.087 6.625v6.375l0.144 0.294c0.175 0.35 0.569 0.712 1.038 0.962l0.338 0.175 0.044 0.5c0.281 3.313 2.45 6.1 5.581 7.188 1 0.344 1.581 0.438 2.762 0.438 1.394 0.006 2.412-0.219 3.6-0.781 1.269-0.6 2.613-1.75 3.331-2.85l0.337-0.519 1.069 0.038c3.262 0.119 6.006-0.675 6.681-1.944l0.137-0.25v-12.875l-0.137-0.25c-0.363-0.681-1.275-1.213-2.663-1.563-3.712-0.925-8.544-0.138-9.462 1.537-0.1 0.188-0.113 0.4-0.131 1.825-0.019 1.419-0.031 1.613-0.113 1.581-0.056-0.019-0.113-0.037-0.125-0.037s-0.025-1.4-0.025-3.113v-3.106l-0.15-0.313c-0.387-0.838-1.606-1.45-3.569-1.788-0.85-0.15-3.381-0.219-4.219-0.112zM12 4.719c0.831 0.15 1.556 0.369 2.056 0.625 0.412 0.206 0.756 0.519 0.756 0.688 0 0.156-0.406 0.494-0.85 0.694-1.919 0.888-5.65 1-7.956 0.237-1.306-0.431-1.744-0.888-1.25-1.306 0.525-0.438 1.619-0.8 3.025-1 0.875-0.125 3.4-0.088 4.219 0.063zM4.925 7.681c1.075 0.544 2.781 0.838 4.825 0.831 1.869-0.006 3.338-0.256 4.581-0.787l0.481-0.213v4.231l-0.2-0.044c-0.113-0.025-0.7-0.044-1.3-0.044-0.819 0.006-1.225 0.031-1.625 0.119-2.488 0.537-4.619 2.144-5.756 4.331-0.244 0.475-0.269 0.5-0.338 0.375-0.037-0.075-0.2-0.212-0.362-0.3s-0.375-0.238-0.481-0.338c-0.181-0.169-0.188-0.206-0.188-0.7 0-0.287 0.013-0.519 0.031-0.519s0.138 0.050 0.269 0.119c0.125 0.063 0.463 0.194 0.75 0.287 0.45 0.15 0.537 0.162 0.706 0.094 0.225-0.094 0.306-0.231 0.306-0.519 0-0.281-0.112-0.369-0.744-0.6-0.6-0.219-0.975-0.425-1.194-0.662-0.125-0.131-0.156-0.244-0.175-0.594-0.037-0.644-0.025-0.656 0.412-0.438 0.675 0.331 2.369 0.75 3.056 0.75 0.3 0 0.519-0.213 0.519-0.506 0-0.412-0.131-0.494-1-0.619-1.281-0.181-2.444-0.613-2.844-1.063-0.1-0.106-0.131-0.25-0.15-0.662-0.006-0.287-0.006-0.525 0.013-0.525 0.013 0 0.244 0.1 0.513 0.225 1.1 0.506 2.737 0.781 4.694 0.775 1.637 0 2.856-0.162 3.075-0.406 0.188-0.219 0.181-0.494-0.025-0.7-0.175-0.175-0.3-0.175-1.463-0.019-0.606 0.081-2.694 0.081-3.344 0-1.188-0.15-2.088-0.387-2.725-0.725-0.6-0.319-0.7-0.444-0.731-0.931-0.013-0.225-0.006-0.406 0.013-0.406 0.025 0 0.2 0.081 0.4 0.181zM24.406 7.906c1.269 0.194 2.337 0.563 2.8 0.963 0.269 0.244 0.3 0.444 0.087 0.656-1.087 1.088-5.306 1.512-8.106 0.819-1.063-0.269-2-0.794-2-1.119 0-0.262 0.619-0.662 1.45-0.95 0.563-0.188 1.594-0.388 2.4-0.463 0.819-0.075 2.587-0.025 3.369 0.094zM17.794 10.994c1.012 0.438 2.356 0.681 4.025 0.738 2.244 0.075 4.156-0.256 5.575-0.969 0.025-0.012 0.044 0.231 0.044 0.537 0 0.556 0 0.569-0.194 0.731-0.575 0.475-1.8 0.856-3.363 1.037-0.913 0.1-3.081 0.037-3.944-0.119-0.469-0.088-0.706-0.1-0.831-0.056-0.206 0.069-0.381 0.369-0.319 0.556 0.044 0.15 0.056 0.156-0.563-0.287-0.244-0.175-0.581-0.387-0.744-0.475l-0.294-0.156v-0.9c0-0.694 0.019-0.887 0.081-0.863 0.038 0.019 0.275 0.119 0.525 0.225zM14.6 12.781c2.275 0.4 4.281 1.869 5.287 3.875 0.525 1.044 0.756 2 0.762 3.156 0.006 1.988-0.669 3.637-2.087 5.069-1.144 1.156-2.5 1.844-4.125 2.094-2.325 0.35-4.688-0.456-6.313-2.137-1.294-1.344-1.95-2.837-2.037-4.681-0.181-3.538 2.425-6.731 6.006-7.369 0.675-0.119 1.831-0.119 2.506-0.006zM27.306 14.412c-0.206 0.219-0.913 0.563-1.525 0.744-0.788 0.225-1.594 0.344-2.712 0.4-0.944 0.050-0.969 0.050-1.113 0.219-0.181 0.213-0.188 0.469-0.012 0.687 0.125 0.156 0.144 0.163 0.869 0.163 1.538 0 3.331-0.356 4.331-0.856l0.294-0.144v0.556c0 0.55 0 0.563-0.194 0.725-0.462 0.387-1.45 0.756-2.512 0.938-0.762 0.125-0.775 0.131-0.887 0.35-0.131 0.25-0.119 0.4 0.056 0.6 0.131 0.15 0.194 0.175 0.462 0.163 0.688-0.031 2.006-0.369 2.719-0.706l0.356-0.169v0.544c0 0.544 0 0.55-0.212 0.738-0.544 0.475-1.719 0.844-3.313 1.038-0.613 0.075-0.7 0.1-0.831 0.25-0.156 0.188-0.181 0.331-0.075 0.556 0.131 0.288 0.3 0.325 1.087 0.238 1.15-0.125 2.194-0.4 3.238-0.85 0.094-0.038 0.106 0.006 0.106 0.481 0 0.512-0.006 0.531-0.2 0.719-0.419 0.406-1.55 0.806-2.813 0.994-0.694 0.106-3.113 0.169-3.2 0.081-0.025-0.025 0.031-0.256 0.113-0.519 0.531-1.619 0.506-3.594-0.063-5.175-0.381-1.063-1.050-2.15-1.794-2.919-0.238-0.238-0.337-0.381-0.262-0.356 0.863 0.256 3.488 0.363 4.894 0.2 1.050-0.125 2.119-0.381 2.806-0.675l0.488-0.206 0.019 0.525c0.012 0.463 0 0.537-0.119 0.669zM4.825 17.163c0.106 0.056 0.287 0.087 0.406 0.075 0.194-0.025 0.213-0.012 0.175 0.1-0.138 0.475-0.281 1.075-0.281 1.188 0 0.269-0.088 0.294-0.331 0.094l-0.231-0.188v-0.688c0-0.375 0.013-0.681 0.031-0.681 0.025 0 0.125 0.044 0.231 0.1z"></path>
<path d="M9.906 15.081c-0.363 0.119-0.512 0.213-0.825 0.5-0.419 0.381-0.6 0.781-0.631 1.387-0.031 0.613 0.119 1.063 0.494 1.494 0.806 0.913 2.225 0.931 3.069 0.031 0.419-0.444 0.569-0.881 0.537-1.525-0.031-0.575-0.162-0.887-0.563-1.319-0.356-0.387-0.825-0.6-1.381-0.625-0.262-0.012-0.556 0.012-0.7 0.056zM11.050 16.231c0.094 0.069 0.238 0.219 0.313 0.337 0.125 0.175 0.144 0.275 0.125 0.575-0.019 0.231-0.069 0.419-0.156 0.531-0.575 0.775-1.831 0.394-1.831-0.563 0-0.45 0.238-0.819 0.625-0.981 0.231-0.1 0.731-0.044 0.925 0.1z"></path>
<path d="M16.444 15.169c-0.1 0.1-1.731 2.156-3.625 4.575-2.675 3.419-3.444 4.438-3.444 4.575 0 0.456 0.581 0.694 0.906 0.363 0.081-0.081 1.694-2.131 3.588-4.55 3.762-4.806 3.644-4.625 3.288-4.975-0.206-0.213-0.475-0.206-0.712 0.012z"></path>
<path d="M15.025 21.194c-0.688 0.262-1.238 1.006-1.319 1.756-0.081 0.788 0.375 1.613 1.119 2.019 0.306 0.175 0.381 0.188 0.956 0.188 0.531 0 0.662-0.019 0.888-0.144 0.581-0.306 0.938-0.738 1.119-1.363 0.281-0.969-0.3-2.1-1.262-2.462-0.444-0.163-1.069-0.163-1.5 0.006zM16.319 22.269c0.306 0.2 0.512 0.625 0.469 0.975-0.069 0.519-0.481 0.881-1.006 0.881-0.519 0-0.925-0.344-1.006-0.844-0.050-0.356 0.156-0.813 0.469-1.012 0.294-0.194 0.781-0.194 1.075 0z"></path>
</symbol>
<symbol id="icon-hourglass" viewBox="0 0 32 32">
<path d="M2.969 0.075c-0.331 0.175-0.388 0.581-0.119 0.831 0.163 0.15 0.2 0.156 1.063 0.156h0.9v2.125h2.625v2.638c0 1.456 0.031 2.9 0.063 3.219 0.069 0.675 0.319 1.4 0.656 1.931 0.444 0.694 0.875 1.031 3.925 3.056 1.6 1.063 2.912 1.95 2.912 1.969s-1.313 0.9-2.912 1.969c-3.050 2.025-3.481 2.363-3.925 3.056-0.338 0.531-0.588 1.256-0.656 1.931-0.031 0.319-0.063 1.762-0.063 3.212v2.644h-2.625v2.125h-0.9c-0.863 0-0.9 0.006-1.063 0.156-0.263 0.244-0.219 0.656 0.094 0.813 0.263 0.137 25.85 0.137 26.113 0 0.313-0.156 0.356-0.569 0.094-0.813-0.163-0.15-0.2-0.156-1.063-0.156h-0.9v-2.125h-2.625v-2.644c0-1.45-0.031-2.894-0.063-3.212-0.069-0.675-0.319-1.4-0.656-1.931-0.444-0.694-0.875-1.031-3.925-3.056-1.6-1.069-2.913-1.95-2.913-1.969s1.313-0.906 2.913-1.969c3.050-2.025 3.481-2.363 3.925-3.056 0.337-0.531 0.587-1.256 0.656-1.931 0.031-0.319 0.063-1.763 0.063-3.219v-2.638h2.625v-2.125h0.9c0.863 0 0.9-0.006 1.063-0.156s0.212-0.394 0.125-0.625c-0.113-0.294 0.488-0.281-13.287-0.281-9.213 0.006-12.931 0.025-13.019 0.075zM26.125 1.594v0.531h-20.25v-1.063h20.25v0.531zM23.438 6.188v3.006l-0.163 0.488c-0.106 0.331-0.269 0.631-0.481 0.919-0.313 0.412-0.444 0.512-3.512 2.569-1.75 1.175-3.231 2.137-3.281 2.137s-1.525-0.963-3.281-2.137c-3.069-2.056-3.2-2.156-3.512-2.569-0.213-0.287-0.375-0.588-0.481-0.919l-0.162-0.488v-6.006h14.875v3zM19.281 18.831c3.069 2.056 3.2 2.156 3.512 2.569 0.212 0.288 0.375 0.587 0.481 0.919l0.163 0.488v6.006h-14.875v-6.006l0.162-0.488c0.106-0.331 0.269-0.631 0.481-0.919 0.313-0.413 0.444-0.512 3.513-2.569 1.756-1.175 3.231-2.137 3.281-2.137s1.531 0.962 3.281 2.137zM26.125 30.406v0.531h-20.25v-1.063h20.25v0.531z"></path>
<path d="M9.775 7.094l-0.162 0.162 0.025 1.012c0.025 1.094 0.063 1.238 0.475 1.781 0.231 0.306 2.994 2.138 3.219 2.138 0.219 0 0.544-0.306 0.544-0.512 0-0.081-0.044-0.213-0.1-0.287-0.056-0.081-0.681-0.531-1.394-1.006-1.269-0.85-1.6-1.131-1.662-1.4-0.012-0.075-0.037-0.5-0.044-0.938-0.019-0.794-0.019-0.806-0.194-0.956-0.231-0.2-0.506-0.194-0.706 0.006z"></path>
<path d="M18.469 20.306c-0.319 0.131-0.425 0.512-0.212 0.775 0.075 0.1 0.719 0.569 1.431 1.044 0.762 0.512 1.356 0.95 1.444 1.075 0.137 0.188 0.15 0.288 0.181 1.094 0.031 0.825 0.044 0.894 0.181 1.044 0.2 0.212 0.55 0.225 0.744 0.019 0.131-0.137 0.137-0.206 0.137-1.063 0-1.569-0.137-1.762-2.131-3.087-0.738-0.488-1.406-0.9-1.494-0.919s-0.212-0.006-0.281 0.019z"></path>
</symbol>
<symbol id="icon-calculator" viewBox="0 0 32 32">
<path d="M20.531 0.094c-2.262 0.356-4.35 1.744-5.45 3.625l-0.238 0.406h-11.9l-0.35 0.3v27.275l0.35 0.3h11.469c8.6 0 11.506-0.019 11.606-0.075 0.075-0.038 0.169-0.113 0.212-0.169 0.063-0.075 0.081-2.1 0.081-8.975l0.006-8.875 0.281-0.219c0.794-0.613 1.688-1.787 2.15-2.844 0.75-1.719 0.856-3.775 0.281-5.5-0.637-1.906-1.975-3.487-3.788-4.463-1.319-0.713-3.206-1.025-4.713-0.787zM22.887 1.15c3.325 0.637 5.637 3.563 5.469 6.919-0.113 2.388-1.469 4.5-3.594 5.606-0.669 0.344-1.406 0.588-2.156 0.706-0.637 0.1-1.863 0.037-2.519-0.125-2.525-0.625-4.506-2.713-4.994-5.262-0.162-0.863-0.125-2.106 0.094-2.938 0.2-0.763 0.675-1.744 1.144-2.35 0.363-0.475 1.169-1.238 1.606-1.525 0.744-0.494 1.794-0.919 2.587-1.050 0.525-0.087 1.863-0.075 2.363 0.019zM14.356 5.263c-0.019 0.044-0.081 0.269-0.144 0.5l-0.113 0.425-9.156 0.031-0.287 0.287-0.019 3.138c-0.013 2.181 0 3.213 0.050 3.375 0.131 0.438-0.169 0.419 6.131 0.419h5.631l0.294 0.244c1.844 1.531 4.25 2.119 6.6 1.606 0.481-0.1 1.244-0.363 1.606-0.544 0.131-0.069 0.262-0.119 0.3-0.119 0.044 0 0.063 2.55 0.063 8.156v8.156h-21.688v-25.75h5.381c4.275 0 5.375 0.019 5.35 0.075zM13.956 8.044c0.075 1.469 0.456 2.681 1.206 3.85 0.15 0.231 0.275 0.438 0.275 0.45 0 0.019-2.194 0.031-4.875 0.031h-4.875v-5.125h8.231l0.037 0.794z"></path>
<path d="M20.706 2.156c-1.481 0.269-2.869 1.156-3.706 2.375-0.506 0.737-0.9 1.85-0.981 2.769l-0.037 0.456 1.050-0.037 0.038-0.444c0.137-1.537 1.081-2.912 2.494-3.644 0.569-0.3 1.006-0.431 1.625-0.494l0.469-0.044 0.019-0.519 0.019-0.513-0.269 0.006c-0.15 0-0.469 0.044-0.719 0.087z"></path>
<path d="M21.175 4.638l-0.019 0.513-0.262 0.050c-0.962 0.162-1.538 1.231-1.137 2.112 0.169 0.375 0.4 0.612 0.775 0.787 0.269 0.131 0.406 0.15 1.019 0.15 0.931 0 1.144 0.1 1.137 0.55-0.006 0.213-0.119 0.363-0.337 0.45-0.1 0.037-0.712 0.063-1.45 0.063h-1.275v1h1.563v1.063h1v-1.044l0.256-0.037c0.144-0.019 0.387-0.113 0.544-0.213 1.044-0.644 0.962-2.169-0.144-2.681-0.269-0.125-0.413-0.15-0.988-0.15-0.806 0-1.056-0.081-1.163-0.375-0.050-0.156-0.050-0.244 0.012-0.362 0.137-0.294 0.288-0.325 1.719-0.325h1.325v-1h-1.563v-1.063h-0.994l-0.019 0.513z"></path>
<path d="M26.313 7.969c0 0.35-0.181 1.15-0.356 1.563-0.644 1.537-2.175 2.669-3.8 2.819l-0.469 0.044v1.050l0.269-0.031c0.144-0.019 0.406-0.050 0.575-0.069 0.531-0.069 1.163-0.281 1.788-0.606 1.706-0.887 2.831-2.594 3.019-4.6l0.038-0.388h-1.063v0.219z"></path>
<path d="M4.806 15.662l-0.15 0.162v1.744c0 1.725 0 1.744 0.144 1.881 0.138 0.144 0.169 0.144 1.781 0.163 0.9 0.012 1.7 0 1.781-0.019 0.075-0.019 0.194-0.087 0.262-0.156 0.119-0.119 0.125-0.219 0.125-1.9v-1.781l-0.162-0.125c-0.162-0.125-0.244-0.131-1.9-0.131h-1.731l-0.15 0.162zM7.75 17.531v1.031h-2.063v-2.063h2.063v1.031z"></path>
<path d="M9.969 15.656l-0.156 0.15v3.437l0.3 0.35h3.525l0.3-0.35v-1.656c0-1.731-0.031-1.95-0.281-2.050-0.056-0.019-0.875-0.037-1.819-0.037h-1.719l-0.15 0.156zM12.875 17.531v1.031h-2.063v-0.988c0-0.544 0.019-1.012 0.044-1.031 0.019-0.025 0.488-0.044 1.031-0.044h0.988v1.031z"></path>
<path d="M15.119 15.662c-0.15 0.156-0.15 0.169-0.169 1.731-0.012 1.031 0 1.656 0.050 1.806 0.119 0.406 0.213 0.425 2.031 0.425s1.913-0.019 2.031-0.425c0.050-0.15 0.063-0.775 0.050-1.806-0.019-1.563-0.019-1.575-0.169-1.731l-0.15-0.162h-3.525l-0.15 0.162zM18.063 17.531v1.031h-2.063v-2.063h2.063v1.031z"></path>
<path d="M4.963 20.712c-0.125 0.056-0.219 0.156-0.269 0.288-0.088 0.269-0.094 3.175-0.006 3.413 0.125 0.331 0.144 0.331 2.038 0.337 1.75 0 1.756 0 1.887-0.144 0.137-0.144 0.137-0.181 0.137-1.894-0.006-1.875-0.006-1.9-0.338-2.025-0.269-0.1-3.206-0.081-3.45 0.025zM7.75 22.719v1.031h-2.063v-2.063h2.063v1.031z"></path>
<path d="M10.15 20.688c-0.325 0.131-0.338 0.212-0.338 2.050v1.706l0.156 0.15 0.15 0.156h1.744c1.631 0 1.756-0.006 1.894-0.119l0.15-0.119 0.037-3.5-0.156-0.175-0.15-0.181-1.681-0.012c-0.919-0.006-1.738 0.012-1.806 0.044zM12.875 22.719v1.031h-2.063v-2.063h2.063v1.031z"></path>
<path d="M15.269 20.719c-0.306 0.131-0.344 0.369-0.319 2.156 0.019 1.544 0.019 1.556 0.169 1.712l0.15 0.163h3.525l0.15-0.163c0.15-0.156 0.15-0.169 0.169-1.731 0.025-1.813-0.006-2.006-0.331-2.144-0.306-0.125-3.219-0.125-3.512 0.006zM18.063 22.719v1.031h-2.063v-2.063h2.063v1.031z"></path>
<path d="M20.462 20.688c-0.35 0.144-0.337-0.025-0.337 4.613v4.275l0.363 0.363h1.669c1.694 0 1.837-0.019 2.012-0.244 0.056-0.075 0.075-1.119 0.081-4.394v-4.294l-0.3-0.35-1.681-0.012c-0.919-0.006-1.738 0.012-1.806 0.044zM23.25 25.281v3.594h-2.063v-7.188h2.063v3.594z"></path>
<path d="M4.831 25.962l-0.175 0.15v3.525l0.181 0.15 0.175 0.156 3.5-0.038 0.119-0.15c0.113-0.137 0.119-0.262 0.119-1.894v-1.744l-0.156-0.15-0.15-0.156h-3.438l-0.175 0.15zM7.75 27.844v1.031h-2.063v-2.063h2.063v1.031z"></path>
<path d="M9.975 25.975l-0.162 0.169v1.725c0.006 1.813 0.006 1.844 0.294 1.994 0.181 0.1 3.325 0.106 3.537 0.006 0.088-0.038 0.188-0.137 0.225-0.225 0.1-0.212 0.094-3.356-0.006-3.538-0.15-0.288-0.181-0.288-1.994-0.294h-1.725l-0.169 0.163zM12.875 27.844v1.031h-2.063v-0.988c0-0.544 0.019-1.012 0.044-1.031 0.019-0.025 0.488-0.044 1.031-0.044h0.988v1.031z"></path>
<path d="M15.144 25.962l-0.175 0.15-0.019 1.556c-0.012 0.85 0 1.644 0.019 1.762 0.019 0.113 0.106 0.275 0.188 0.356l0.15 0.15h3.437l0.35-0.3v-3.525l-0.35-0.3h-3.425l-0.175 0.15zM18.063 27.844v1.031h-2.063v-2.063h2.063v1.031z"></path>
</symbol>
<symbol id="icon-profitability" viewBox="0 0 32 32">
<path d="M19.012 2.019l-2.012 2.013v1.156h2v5.294l0.644 0.206c0.788 0.244 2.113 0.875 2.825 1.338l0.531 0.35v-7.188h2v-1.219l-3.969-3.969-2.019 2.019z"></path>
<path d="M8.981 4.862l-1.981 1.981v1.156h2l0.012 2.181 0.019 2.181 0.469-0.313c0.669-0.444 2.106-1.131 2.863-1.369l0.637-0.2v-2.481h2v-1.156l-1.988-1.987c-1.088-1.087-1.994-1.981-2.012-1.981s-0.925 0.894-2.019 1.987z"></path>
<path d="M14.875 12.037c-3.875 0.488-7.1 3.088-8.331 6.713-0.412 1.212-0.506 1.806-0.506 3.25 0 1.087 0.019 1.375 0.138 1.919 0.294 1.356 0.794 2.556 1.506 3.625 1.494 2.231 3.775 3.744 6.463 4.281 1 0.2 2.712 0.2 3.706 0 4.306-0.856 7.494-4.238 8.063-8.544 0.131-0.962 0.087-2.356-0.1-3.25-0.731-3.512-3.194-6.325-6.55-7.494-1.081-0.375-1.706-0.481-3.012-0.506-0.637-0.012-1.256-0.006-1.375 0.006zM19.025 16.856c0 0.188-4.356 11.019-4.425 11.019-0.131 0-1.662-0.637-1.662-0.694 0-0.050 4.356-10.975 4.412-11.069 0.012-0.019 0.4 0.113 0.856 0.294 0.644 0.262 0.825 0.356 0.819 0.45zM13.45 16.644c1.119 0.55 1.762 1.762 1.563 2.95-0.2 1.2-1.119 2.131-2.319 2.35-1.213 0.212-2.5-0.481-3.025-1.631-0.262-0.569-0.306-1.356-0.113-1.994 0.25-0.819 0.956-1.544 1.787-1.819 0.294-0.1 0.506-0.119 1.006-0.106 0.588 0.012 0.662 0.031 1.1 0.25zM20.469 22.094c0.8 0.212 1.494 0.794 1.863 1.575 0.188 0.4 0.2 0.462 0.2 1.15 0 0.706-0.006 0.731-0.231 1.188-0.625 1.256-1.931 1.869-3.269 1.525-1.331-0.35-2.256-1.744-2.050-3.094 0.262-1.681 1.875-2.762 3.488-2.344z"></path>
<path d="M11.762 18.375c-0.662 0.406-0.581 1.381 0.137 1.656 0.363 0.137 0.656 0.087 0.944-0.163 0.662-0.581 0.275-1.619-0.606-1.619-0.156 0-0.35 0.050-0.475 0.125z"></path>
<path d="M19.294 24.012c-0.25 0.15-0.481 0.538-0.481 0.813 0 0.081 0.063 0.275 0.144 0.425 0.456 0.863 1.731 0.538 1.731-0.444 0-0.719-0.769-1.156-1.394-0.794z"></path>
</symbol>
<symbol id="icon-destination" viewBox="0 0 32 32">
<path d="M15.144 0.563c-1.275 0.144-2.537 0.613-3.644 1.344-0.619 0.406-1.7 1.5-2.113 2.125-0.919 1.388-1.344 2.794-1.35 4.438 0 1.231 0.181 2.144 0.662 3.238 0.219 0.519 0.294 0.637 1.412 2.387l0.881 1.375-1.856 0.031c-1.75 0.031-1.869 0.037-2.106 0.169-0.287 0.15-0.537 0.406-0.675 0.675-0.050 0.106-1.269 3.113-2.7 6.688-1.725 4.306-2.612 6.606-2.638 6.813-0.069 0.619 0.244 1.181 0.819 1.488l0.256 0.137h13.938c13.481 0 13.944-0.006 14.156-0.119 0.563-0.3 0.844-0.744 0.837-1.35-0.006-0.375-0.194-0.913-2.456-7.063-1.744-4.744-2.5-6.719-2.625-6.875-0.094-0.119-0.313-0.287-0.481-0.375-0.3-0.156-0.313-0.156-2.375-0.188l-2.069-0.031 0.488-0.781c0.275-0.431 0.706-1.113 0.969-1.519 1.081-1.675 1.475-2.894 1.481-4.606 0.006-1.044-0.075-1.581-0.369-2.5-0.406-1.275-0.981-2.206-1.962-3.194-1.156-1.163-2.55-1.906-4.131-2.212-0.606-0.113-1.775-0.162-2.35-0.094zM17.7 1.706c1.269 0.331 2.319 0.931 3.25 1.856 1.244 1.244 1.95 2.838 2.031 4.6 0.075 1.631-0.325 2.981-1.331 4.494-0.206 0.306-1.55 2.425-2.988 4.706-1.438 2.275-2.637 4.137-2.662 4.137s-1.225-1.863-2.662-4.137c-1.438-2.281-2.806-4.438-3.037-4.794-0.981-1.494-1.356-2.781-1.281-4.406 0.081-1.769 0.775-3.338 2.044-4.612 1.031-1.031 2.262-1.675 3.762-1.962 0.719-0.131 2.119-0.075 2.875 0.119zM12.919 18.531c0.7 1.1 1.269 2.019 1.269 2.044 0 0.031-0.081 0.050-0.181 0.050-0.338 0-1.725 0.262-2.225 0.419-0.944 0.3-1.45 0.619-1.662 1.056-0.238 0.5-0.037 1 0.544 1.375 1.106 0.706 3.938 1.131 6.431 0.969 3.419-0.225 5.163-1.019 4.844-2.194-0.181-0.669-1.238-1.194-2.994-1.494-0.425-0.075-0.85-0.131-0.95-0.131s-0.181-0.019-0.181-0.050c0-0.025 0.569-0.944 1.269-2.044l1.262-2 1.144-0.038 0.025 1.3 0.019 1.306 0.369 0.756c0.419 0.863 0.688 1.175 1.225 1.419 0.188 0.087 0.512 0.175 0.719 0.2 0.206 0.019 0.462 0.063 0.575 0.1 0.238 0.069 0.525 0.375 0.731 0.788 0.206 0.394 0.556 0.719 1 0.925 0.3 0.137 0.494 0.175 0.981 0.2l0.606 0.031 0.163 0.444c0.087 0.244 0.163 0.462 0.163 0.481 0 0.025-0.469 0.056-1.044 0.063-1 0.025-1.069 0.031-1.406 0.2-0.625 0.306-1.006 0.863-1.087 1.581-0.025 0.2-0.081 0.45-0.137 0.556-0.050 0.1-0.425 0.525-0.831 0.938-0.913 0.931-1.006 1.106-1.044 2.050l-0.031 0.669h-5.981v-0.8c0-1.319-0.063-1.462-1.325-3.012-0.519-0.637-0.631-0.744-1.012-0.938-0.425-0.212-0.444-0.219-1.35-0.244-1.206-0.025-1.506 0.050-2.338 0.587l-0.619 0.406h-0.825c-0.756 0-0.844-0.012-1.037-0.144-0.331-0.219-0.469-0.481-0.513-0.944-0.025-0.231-0.094-0.538-0.162-0.694-0.169-0.387-0.588-0.813-0.994-1.012-0.294-0.144-0.444-0.169-1.056-0.194-0.388-0.019-0.706-0.044-0.706-0.069 0-0.137 2.669-6.688 2.769-6.806l0.131-0.137 2.094 0.012 2.1 0.019 1.262 2zM25.137 16.637c0.081 0.087 0.556 1.3 1.175 2.988l1.038 2.844-0.3 0.019c-0.2 0.012-0.369-0.019-0.531-0.1-0.288-0.15-0.4-0.269-0.581-0.631-0.2-0.394-0.65-0.856-1.025-1.038-0.206-0.1-0.488-0.175-0.756-0.2-0.45-0.038-0.8-0.169-0.981-0.369-0.056-0.069-0.231-0.381-0.387-0.706l-0.288-0.594v-2.35h1.25c1.219 0 1.256 0.006 1.387 0.137zM15.188 22.125c0.713 1.156 0.913 1.156 1.619 0.006l0.381-0.613 0.325 0.025c1.825 0.144 3.663 0.688 3.456 1.019-0.019 0.038-0.175 0.131-0.344 0.219-1.375 0.694-4.994 0.938-7.544 0.5-1.175-0.206-2.188-0.619-2.050-0.844 0.075-0.125 0.775-0.419 1.319-0.556 0.506-0.125 1.581-0.3 2.088-0.337 0.156-0.012 0.3-0.025 0.325-0.031 0.019-0.006 0.213 0.269 0.425 0.613zM6.037 24.663c0.306 0.225 0.406 0.419 0.469 0.9 0.1 0.837 0.5 1.425 1.175 1.744 0.306 0.144 0.45 0.163 1.163 0.181 1.081 0.031 1.313-0.025 2.106-0.538l0.644-0.419 0.931-0.019c1.238-0.031 1.213-0.044 2.094 1.044 0.375 0.469 0.731 0.938 0.787 1.044 0.069 0.137 0.094 0.387 0.094 1.038v0.863h-6.588c-6.563 0-6.581 0-6.75-0.131-0.119-0.094-0.163-0.188-0.163-0.344 0-0.131 0.394-1.194 1.006-2.725 0.556-1.387 1.031-2.581 1.063-2.663 0.056-0.144 0.063-0.144 0.925-0.125 0.763 0.019 0.894 0.038 1.044 0.15zM29.25 27.644c0.425 1.175 0.788 2.225 0.8 2.337 0.019 0.15-0.012 0.238-0.137 0.356l-0.156 0.163h-6.256v-0.569c0-0.313 0.031-0.625 0.069-0.7 0.044-0.075 0.413-0.488 0.831-0.919 0.85-0.869 0.994-1.113 1.094-1.813 0.069-0.519 0.194-0.725 0.512-0.887 0.181-0.094 0.387-0.113 1.337-0.113h1.125l0.781 2.144z"></path>
<path d="M15.313 2.538c-1.331 0.175-2.744 0.881-3.631 1.819-0.725 0.769-1.238 1.7-1.5 2.737-0.2 0.781-0.2 2.006-0.006 2.806 0.556 2.237 2.281 3.925 4.563 4.456 0.706 0.162 1.925 0.15 2.669-0.031 0.681-0.169 1.663-0.637 2.219-1.063 1.069-0.806 1.869-2.037 2.2-3.363 0.181-0.731 0.194-1.963 0.031-2.662-0.531-2.269-2.231-4.019-4.425-4.55-0.512-0.125-1.669-0.206-2.119-0.15zM17.406 3.688c1.669 0.525 2.894 1.756 3.419 3.438 0.119 0.4 0.144 0.6 0.144 1.344 0 1.031-0.087 1.419-0.5 2.25-0.625 1.269-1.688 2.162-3.094 2.606-0.4 0.125-0.6 0.144-1.375 0.144s-0.975-0.019-1.375-0.144c-1.694-0.531-2.919-1.756-3.45-3.45-0.125-0.4-0.144-0.6-0.144-1.375s0.019-0.975 0.144-1.375c0.581-1.844 2.025-3.169 3.894-3.563 0.494-0.1 1.844-0.031 2.337 0.125z"></path>
<path d="M16.587 7.756l-2.069 2.063-0.569-0.581-0.575-0.581-0.344 0.344-0.344 0.35 0.831 0.825c0.606 0.594 0.875 0.825 0.988 0.825s0.713-0.563 2.475-2.331l2.331-2.325-0.656-0.656-2.069 2.069z"></path>
</symbol>
<symbol id="icon-royal" viewBox="0 0 32 32">
<path d="M15.563 2.15c-1.081 0.237-1.781 1.2-1.662 2.294 0.050 0.487 0.25 0.9 0.619 1.256l0.3 0.3-2.7 4.481c-1.488 2.469-2.731 4.525-2.775 4.569-0.056 0.063-0.588-0.219-2.612-1.406l-2.538-1.488 0.037-0.45c0.044-0.544-0.044-0.919-0.331-1.375-0.869-1.375-3.013-1.225-3.688 0.256-0.6 1.319 0.25 2.831 1.694 3.006l0.319 0.044 1.406 5.1 1.412 5.106h21.913l1.413-5.106 1.406-5.1 0.319-0.044c1.444-0.175 2.294-1.688 1.694-3.006-0.531-1.156-2.038-1.569-3.1-0.85-0.656 0.444-0.994 1.169-0.919 1.994l0.044 0.425-2.544 1.488c-2.369 1.387-2.55 1.481-2.631 1.375-0.044-0.063-1.294-2.119-2.769-4.569l-2.688-4.456 0.269-0.244c0.363-0.313 0.619-0.85 0.663-1.356 0.113-1.419-1.175-2.55-2.55-2.244z"></path>
<path d="M5.394 26.375c-0.556 0.113-1 0.462-1.281 1-0.206 0.4-0.206 1.1 0 1.5 0.206 0.394 0.537 0.719 0.912 0.887l0.319 0.144h21.313l0.319-0.144c0.375-0.169 0.706-0.494 0.913-0.887 0.206-0.4 0.206-1.1 0-1.5-0.206-0.394-0.538-0.719-0.913-0.887l-0.319-0.144-10.5-0.006c-5.775-0.006-10.619 0.012-10.762 0.038z"></path>
</symbol>
</defs>
</svg>
